<?xml version="1.0" standalone="no"?>
<!DOCTYPE svg PUBLIC "-//W3C//DTD SVG 20010904//EN"
 "http://www.w3.org/TR/2001/REC-SVG-20010904/DTD/svg10.dtd">
<svg version="1.0" xmlns="http://www.w3.org/2000/svg"
 width="614.000000pt" height="614.000000pt" viewBox="0 0 614.000000 614.000000"
 preserveAspectRatio="xMidYMid meet">
<metadata>
Created by potrace 1.16, written by Peter Selinger 2001-2019
</metadata>
<g transform="translate(0.000000,614.000000) scale(0.100000,-0.100000)"
fill="#000000" stroke="none">
<path d="M2643 5839 c-446 -21 -762 -102 -1034 -264 -178 -106 -357 -283 -492
-487 -59 -88 -192 -347 -183 -355 3 -3 33 6 68 20 35 14 104 35 155 47 l92 23
46 79 c187 322 453 518 830 612 368 92 1104 112 1620 45 97 -12 287 -59 387
-95 278 -100 510 -294 668 -561 l45 -76 115 -33 c63 -18 132 -40 152 -48 45
-19 48 -20 48 -3 0 20 -90 201 -146 293 -233 386 -577 632 -1034 738 -285 66
-796 91 -1337 65z m922 -19 c313 -26 523 -73 746 -169 329 -142 591 -405 781
-786 61 -122 63 -118 -39 -84 -48 16 -113 36 -145 44 -55 15 -57 17 -93 81
-54 97 -185 255 -278 335 -309 267 -715 369 -1472 369 -943 0 -1374 -143
-1688 -561 -31 -41 -74 -106 -94 -144 l-38 -69 -106 -27 c-58 -15 -125 -36
-147 -47 -23 -11 -42 -17 -42 -13 0 18 131 264 177 332 201 297 425 482 732
603 165 65 422 118 655 135 161 12 910 12 1051 1z"/>
<path d="M2580 4883 c-1143 -16 -1617 -121 -1921 -423 -143 -142 -218 -287
-276 -535 -26 -117 -27 -694 0 -832 57 -292 191 -495 430 -650 191 -125 392
-178 708 -190 320 -11 539 42 744 180 33 23 123 102 200 178 77 75 164 152
192 172 205 139 622 123 816 -31 21 -17 92 -81 158 -143 184 -172 271 -231
427 -288 142 -53 233 -65 467 -66 204 0 320 12 435 45 19 5 44 7 55 4 13 -4
16 -2 7 4 -9 6 0 12 30 21 63 19 180 74 232 111 26 17 52 28 59 24 6 -4 9 -4
5 1 -9 9 9 35 24 35 5 0 6 -6 2 -12 -4 -8 -3 -10 2 -5 5 5 9 12 9 17 0 14 118
129 127 124 5 -3 7 -2 6 3 -2 5 21 45 50 89 130 199 172 394 172 789 0 367
-32 545 -130 735 -217 415 -671 590 -1639 631 -233 9 -1057 17 -1391 12z
m1615 -37 c654 -54 982 -155 1217 -375 118 -111 207 -255 254 -412 70 -232 82
-719 25 -994 -73 -355 -310 -611 -673 -729 -198 -64 -531 -84 -763 -46 -66 10
-139 26 -162 34 -71 25 -195 88 -257 130 -77 53 -176 144 -172 159 1 7 1 8 -2
4 -2 -5 -19 6 -38 24 -18 18 -30 37 -27 42 3 6 2 8 -3 4 -5 -3 -36 17 -69 44
-78 65 -201 125 -295 145 -57 12 -113 15 -230 11 -133 -4 -165 -8 -221 -29
-109 -40 -156 -74 -310 -224 -243 -235 -381 -311 -649 -355 -180 -29 -532 -6
-718 47 -320 93 -567 320 -666 615 -50 148 -60 247 -60 574 0 270 2 311 21
405 73 350 242 574 548 727 212 106 538 171 1015 203 256 17 310 17 1205 14
656 -2 882 -6 1030 -18z"/>
<path d="M2325 4640 c-490 -18 -890 -68 -1139 -141 -39 -11 -114 -42 -166 -67
-80 -39 -109 -60 -186 -137 -184 -183 -244 -381 -244 -805 0 -285 23 -423 97
-578 63 -134 219 -272 379 -336 131 -53 229 -68 469 -73 193 -4 233 -2 323 16
176 34 267 87 425 244 175 174 263 240 391 291 127 50 335 68 531 46 152 -18
275 -66 401 -156 80 -56 247 -221 238 -235 -3 -5 -1 -8 4 -7 14 5 103 -62 96
-73 -3 -5 -11 -7 -17 -3 -13 6 8 -12 40 -34 17 -12 17 -13 0 -8 -12 4 -16 2
-11 -6 5 -7 2 -9 -9 -5 -11 4 -14 2 -10 -9 4 -11 9 -12 16 -5 14 14 23 14 25
-1 0 -7 4 -25 9 -40 6 -20 12 -25 22 -19 8 5 11 16 8 26 -4 9 -11 13 -17 10
-5 -3 -10 -1 -10 4 0 6 5 11 12 11 6 0 3 7 -8 15 -26 20 -8 19 27 -2 29 -17
38 -33 18 -33 -5 0 -7 -5 -4 -11 5 -6 12 -4 20 8 7 10 17 15 21 10 4 -4 2 -7
-5 -7 -7 0 -9 -4 -6 -10 6 -9 -8 -14 -27 -11 -5 0 -8 -3 -8 -9 0 -5 -7 -10
-16 -10 -14 0 -14 -3 -4 -15 7 -8 9 -15 5 -15 -10 0 -33 29 -45 57 -6 16 -16
21 -35 19 -14 -1 -28 -5 -31 -9 -3 -3 8 -4 25 -2 19 2 31 0 31 -7 0 -6 -3 -9
-6 -6 -3 4 -20 0 -39 -7 -18 -8 -36 -11 -40 -7 -5 4 -5 1 -1 -6 4 -7 12 -10
17 -7 5 4 9 0 10 -7 1 -7 2 -22 3 -32 1 -21 109 -86 145 -89 12 -1 21 -4 21
-8 0 -10 126 -40 230 -54 209 -28 475 -12 669 40 291 78 526 268 639 515 68
150 92 272 97 490 2 91 1 146 -2 123 -2 -24 -7 -43 -12 -43 -4 0 -7 -16 -7
-35 0 -21 3 -30 8 -22 4 6 8 7 8 2 0 -6 -5 -16 -12 -23 -6 -6 -11 -27 -10 -46
1 -24 -4 -39 -16 -46 -14 -10 -15 -11 -1 -7 13 4 17 -2 17 -34 1 -42 -14 -54
-21 -16 -4 18 -4 17 -6 -6 0 -16 -5 -26 -11 -22 -6 4 -7 12 -3 18 5 9 3 9 -8
1 -8 -7 -22 -13 -32 -15 -17 -4 -17 -5 0 -29 19 -28 26 -53 12 -44 -5 3 -6 10
-3 16 5 7 1 9 -9 5 -11 -4 -17 -1 -17 7 0 7 -6 19 -14 26 -8 6 -12 18 -9 27 5
12 1 14 -15 8 -19 -5 -22 -2 -22 23 0 17 6 32 15 36 8 3 15 11 15 18 0 9 -3 8
-10 -2 -9 -13 -10 -13 -10 0 -2 29 -17 -25 -25 -85 -19 -165 -82 -305 -184
-417 -169 -184 -396 -267 -746 -273 -209 -3 -319 9 -443 47 -70 21 -182 77
-182 90 0 12 5 10 57 -21 115 -71 273 -101 528 -101 321 0 507 49 685 180 85
63 143 135 197 245 57 118 82 237 92 435 23 455 -33 713 -196 899 -49 56 -156
137 -228 174 -196 98 -507 158 -995 193 -261 18 -1401 27 -1765 14z m1690 -24
c660 -42 996 -123 1203 -290 211 -170 293 -430 279 -881 -3 -104 -13 -228 -21
-275 -30 -166 -89 -298 -178 -395 -67 -73 -203 -168 -231 -161 -9 2 -15 1 -12
-3 14 -24 -200 -77 -367 -92 -210 -18 -424 2 -575 52 -93 31 -170 86 -321 230
-177 170 -260 227 -407 277 -102 35 -184 45 -350 45 -340 0 -485 -68 -780
-367 -127 -129 -229 -187 -392 -224 -113 -25 -449 -24 -588 2 -239 44 -407
142 -530 308 -51 68 -99 195 -122 322 -24 129 -24 542 0 672 65 351 241 551
569 650 265 79 629 121 1233 144 345 13 1295 4 1590 -14z"/>
<path d="M5786 4032 c-2 -4 2 -31 9 -60 27 -102 35 -206 35 -446 0 -201 -4
-265 -21 -367 -11 -68 -22 -128 -22 -134 -1 -5 7 -9 18 -7 11 2 41 4 68 5 26
0 47 5 47 10 0 4 -10 6 -22 2 -13 -3 -6 4 16 16 32 17 40 18 48 7 8 -10 9 -9
5 3 -3 10 4 25 17 36 13 11 34 42 47 69 24 49 24 52 24 359 0 299 -1 311 -22
351 -24 45 -75 99 -113 119 -38 20 -129 45 -134 37z m138 -61 c45 -28 72 -59
95 -111 19 -42 21 -65 21 -326 0 -223 -3 -291 -15 -330 -25 -81 -66 -118 -169
-154 -53 -18 -57 -18 -51 -2 4 9 15 66 26 126 35 200 22 697 -21 811 -5 14
-10 28 -10 30 0 7 95 -26 124 -44z"/>
<path d="M5911 3884 c-29 -37 -28 -72 3 -80 14 -3 29 -4 33 -1 5 3 9 -10 10
-30 0 -23 -2 -31 -8 -22 -6 10 -11 11 -20 2 -8 -8 -6 -13 10 -18 12 -3 21 -11
21 -16 0 -6 -4 -7 -10 -4 -13 8 -13 -8 0 -21 5 -5 7 -19 4 -31 -5 -18 -10 -21
-24 -13 -20 11 -20 24 -2 57 10 19 9 23 -8 28 -22 7 -26 25 -9 42 8 8 8 13 0
17 -6 4 -11 2 -11 -3 0 -6 -7 -11 -15 -11 -8 0 -15 5 -15 11 0 5 5 7 10 4 6
-3 10 -1 10 4 0 6 -5 11 -11 11 -5 0 -8 4 -5 9 4 5 0 12 -6 14 -10 4 -10 6 0
6 14 1 17 31 3 31 -5 0 -12 8 -14 18 -3 9 -2 -28 1 -83 13 -185 4 -520 -16
-642 -10 -62 -16 -113 -14 -113 15 0 130 66 145 83 48 55 49 63 50 386 1 221
-2 312 -10 326 -9 15 -13 16 -14 5 -1 -8 -1 -18 0 -22 0 -5 -3 -8 -9 -8 -5 0
-10 5 -10 10 0 6 -5 10 -11 10 -5 0 -8 -4 -5 -9 8 -12 -13 -19 -41 -13 -28 5
-29 25 -2 63 26 36 18 38 -10 3z"/>
<path d="M215 4012 c-68 -23 -149 -102 -164 -160 -14 -50 -15 -592 -2 -638 13
-47 36 -86 68 -116 51 -49 193 -99 193 -69 0 5 -6 40 -14 78 -47 221 -47 627
0 831 8 35 14 70 14 78 0 18 -31 17 -95 -4z m80 -11 c-26 -84 -37 -188 -42
-416 -5 -242 1 -331 34 -522 l5 -32 -38 11 c-90 24 -149 71 -181 143 -26 58
-33 576 -9 659 20 66 88 133 162 158 66 22 77 22 69 -1z"/>
<path d="M5586 2615 c-9 -14 -20 -24 -24 -24 -19 3 -32 -2 -32 -12 0 -8 6 -7
17 2 15 13 15 12 5 -8 -18 -33 -121 -118 -140 -115 -14 2 -14 1 -3 -7 11 -7 9
-12 -10 -22 -13 -7 -26 -13 -29 -12 -3 1 -5 -337 -5 -750 0 -795 1 -786 -47
-915 -12 -31 -24 -50 -30 -46 -7 4 -8 2 -4 -4 9 -14 -12 -55 -24 -47 -5 3 -12
0 -16 -6 -4 -8 -3 -9 4 -5 20 12 13 -7 -11 -34 -12 -14 -19 -21 -14 -14 4 7 2
14 -6 17 -10 4 -13 -2 -11 -19 3 -27 -27 -69 -59 -85 -20 -9 -20 -9 -4 4 9 8
17 18 17 22 0 5 -9 0 -20 -10 -11 -10 -20 -25 -20 -34 0 -24 -30 -38 -75 -35
-28 3 -36 1 -25 -6 8 -5 23 -7 33 -4 30 9 19 -3 -28 -31 -25 -14 -49 -24 -54
-21 -5 3 -11 0 -14 -8 -8 -20 -99 -48 -133 -41 -22 4 -24 3 -9 -3 17 -8 12
-11 -30 -23 -41 -11 -356 -14 -1695 -16 -1095 -2 -1667 0 -1712 7 -246 38
-457 176 -555 365 -97 188 -102 251 -103 1115 l0 616 -69 56 c-39 32 -89 81
-112 110 -22 29 -45 55 -50 56 -6 3 -9 -336 -6 -880 3 -976 0 -918 70 -1084
67 -160 174 -295 320 -405 90 -68 158 -104 267 -143 178 -64 71 -61 1870 -61
1564 0 1813 2 1804 16 -2 4 15 10 39 13 54 9 199 67 278 111 33 19 66 35 73
35 7 0 21 7 32 16 10 8 12 12 4 8 -10 -5 -9 0 4 14 11 12 21 20 24 17 3 -3 12
4 20 16 11 17 17 18 30 7 14 -10 15 -10 5 2 -10 11 -1 26 49 79 34 36 69 69
77 73 11 4 11 7 3 7 -7 1 -10 6 -7 11 4 6 10 8 15 5 4 -3 14 3 21 13 13 15 12
16 -3 3 -23 -18 -23 -10 3 33 12 20 26 33 32 29 5 -3 7 -1 4 4 -4 6 4 36 18
67 14 31 30 76 36 101 6 25 16 45 21 45 5 0 6 4 3 10 -3 5 -1 29 6 52 8 31 11
288 10 917 -1 481 -3 876 -5 878 -2 2 -11 -8 -20 -22z m-4937 -172 l56 -46 6
-741 c5 -656 7 -748 22 -805 20 -75 83 -211 120 -260 15 -19 24 -39 20 -45 -3
-6 -3 -8 2 -4 4 4 34 -17 67 -47 115 -107 278 -181 448 -204 57 -7 466 -12
1284 -13 661 -2 1035 -5 831 -8 -203 -3 -752 -5 -1220 -5 -778 0 -857 2 -934
18 -46 10 -85 16 -88 14 -2 -3 9 -8 26 -12 18 -4 28 -11 25 -19 -3 -7 2 -18
10 -25 13 -11 14 -9 11 11 -4 22 -2 24 25 20 17 -2 30 -9 30 -14 0 -5 -4 -7
-9 -4 -4 3 -13 -5 -19 -18 -9 -20 -17 -23 -51 -21 -29 2 -45 -2 -52 -14 -9
-14 -10 -14 -5 2 3 9 1 17 -4 17 -6 0 -10 -7 -10 -17 0 -13 -4 -11 -20 7 -11
13 -20 19 -20 14 0 -13 -54 -14 -62 -1 -11 19 -19 1 -12 -27 3 -14 10 -24 14
-21 5 3 11 1 15 -5 3 -5 -1 -10 -9 -10 -8 0 -18 5 -21 10 -8 13 -25 13 -25 0
0 -5 30 -18 66 -30 78 -24 77 -24 68 -8 -6 10 -5 10 8 1 8 -7 18 -10 21 -6 4
3 7 1 7 -7 0 -9 9 -11 33 -6 19 3 27 3 19 -3 -28 -18 104 -21 976 -22 493 0
906 -5 917 -9 11 -5 -382 -8 -920 -6 -1020 3 -982 1 -1150 59 -131 45 -227
104 -360 219 -6 6 -4 12 5 19 13 9 13 10 0 8 -8 -1 -20 -1 -27 0 -19 2 -135
162 -129 178 3 8 2 12 -3 9 -11 -7 -64 94 -89 174 -42 128 -44 169 -49 1030
l-5 835 52 -58 c29 -32 78 -78 109 -104z m4951 -40 c0 -108 -2 -194 -5 -192
-2 3 -5 82 -5 177 l-2 172 -24 -18 c-13 -9 -24 -20 -24 -24 0 -4 -30 -33 -67
-64 l-68 -57 -5 -691 -5 -691 -3 688 -2 688 103 103 c56 57 103 103 105 104 1
1 2 -87 2 -195z"/>
<path d="M1550 2038 c-18 -13 -43 -36 -54 -51 -21 -28 -21 -34 -21 -740 l0
-712 23 -33 c43 -60 50 -61 373 -63 409 -1 373 -4 407 31 20 19 32 26 35 17 9
-24 10 44 11 748 l1 710 -23 37 c-13 20 -38 46 -56 57 -32 20 -48 21 -348 21
-310 0 -316 0 -348 -22z m694 -17 c15 -10 37 -32 47 -47 18 -28 19 -60 19
-729 0 -677 -1 -701 -20 -732 -38 -63 -47 -65 -398 -61 -286 3 -320 5 -344 21
-60 41 -59 17 -56 792 l3 707 37 34 38 34 322 0 c300 0 325 -1 352 -19z"/>
<path d="M1707 1824 c-3 -4 -6 -267 -7 -585 l0 -579 200 0 200 0 -2 583 -3
582 -191 3 c-104 1 -193 0 -197 -4z m373 -584 l0 -570 -180 0 -180 0 0 570 0
570 180 0 180 0 0 -570z"/>
<path d="M2108 879 l-3 -234 -45 -1 c-126 -4 -299 -4 -332 1 -27 4 -38 1 -38
-8 0 -10 15 -12 55 -10 30 1 57 -2 60 -7 4 -6 -6 -10 -20 -10 -18 0 -24 -4
-19 -12 4 -7 -1 -5 -12 4 -18 15 -21 15 -46 -7 -15 -13 -24 -26 -21 -29 4 -3
1 -6 -5 -6 -7 0 -12 5 -12 11 0 6 -7 9 -15 5 -8 -3 -20 1 -28 8 -11 11 -15 9
-24 -10 -9 -20 -9 -21 7 -12 12 8 22 7 36 -1 17 -11 16 -12 -8 -6 -17 3 -28 1
-28 -5 0 -7 -8 -9 -19 -5 -13 4 -23 0 -30 -12 -6 -10 -11 -12 -11 -5 0 6 -7
12 -15 12 -8 0 -15 5 -15 12 0 6 -2 9 -5 6 -11 -10 15 -59 27 -52 7 4 8 3 4
-4 -19 -30 38 -36 359 -37 418 0 395 -15 395 253 0 102 -4 161 -9 153 -5 -8
-7 -19 -5 -25 3 -7 -5 -21 -16 -33 -11 -12 -20 -27 -20 -34 0 -8 -4 -8 -15 1
-8 7 -15 20 -14 29 0 12 2 11 9 -4 7 -15 9 -9 9 25 0 44 0 45 -15 20 l-15 -25
7 25 c6 22 5 23 -9 11 -9 -7 -15 -18 -14 -24 1 -6 -11 -13 -26 -16 -27 -6 -27
-6 -6 -19 15 -9 19 -10 14 -1 -5 7 -3 10 4 8 19 -7 15 -23 -6 -28 -10 -2 -21
-8 -25 -15 -5 -7 -8 -3 -8 9 0 16 -2 17 -10 5 -5 -9 -9 47 -9 155 -1 92 -3
171 -6 173 -2 3 -6 -100 -7 -229z"/>
<path d="M2570 2042 c-73 -36 -69 5 -72 -792 -2 -557 1 -720 10 -738 7 -12 10
-28 6 -34 -4 -7 -3 -8 4 -4 7 4 12 3 12 -2 0 -5 19 -15 43 -23 31 -10 101 -14
277 -14 210 1 238 3 266 19 69 41 65 -1 64 788 -1 792 3 756 -69 796 -37 21
-51 22 -272 22 -200 -1 -239 -3 -269 -18z m554 -31 c14 -14 30 -41 36 -60 6
-22 10 -296 10 -714 0 -735 1 -726 -54 -763 -15 -9 -29 -14 -33 -10 -3 3 -2 6
4 6 16 0 52 35 61 61 14 36 5 1407 -9 1442 -20 48 -38 52 -274 55 -121 2 -218
1 -214 -2 3 -3 84 -6 180 -6 96 -1 181 -5 188 -10 19 -11 4 -30 -24 -30 -25 0
-39 -23 -30 -51 7 -22 -12 -34 -46 -31 -19 2 -28 -2 -32 -17 -3 -11 0 -22 7
-25 6 -2 2 -5 -8 -5 -10 -1 -25 7 -33 17 -8 9 -12 11 -8 5 7 -14 6 -14 -40
-18 -78 -7 -72 -9 38 -15 l118 -5 0 -523 c0 -288 -2 -526 -5 -530 -3 -3 -6
232 -6 521 l0 527 -109 0 c-77 0 -112 -4 -119 -13 -6 -7 -12 -68 -14 -141 -1
-70 -6 -130 -10 -132 -4 -3 -4 -13 0 -22 12 -26 8 -78 -9 -98 -11 -14 -11 -16
-1 -10 11 7 12 4 3 -12 -14 -26 -14 -35 -1 -27 6 4 7 -1 3 -11 -4 -11 -8 -13
-11 -6 -2 7 -8 12 -13 12 -6 0 -8 -4 -4 -9 3 -6 -2 -14 -11 -19 -9 -5 -14 -15
-10 -21 4 -6 12 -9 17 -5 5 3 7 10 4 15 -8 11 6 11 24 0 11 -7 9 -10 -8 -16
-11 -3 -21 -11 -21 -16 0 -6 -6 -7 -12 -3 -8 5 -7 0 2 -11 14 -17 13 -18 -2
-12 -12 4 -15 2 -11 -9 3 -7 0 -14 -6 -14 -6 0 -12 8 -12 18 -1 16 -2 16 -6
-1 -3 -13 -8 -15 -18 -7 -15 12 -44 3 -41 -13 1 -7 6 -22 10 -35 4 -13 3 -28
-3 -36 -6 -7 -8 -16 -4 -19 3 -4 1 -7 -5 -7 -7 0 -12 30 -15 83 -1 45 -4 -1
-5 -103 -1 -102 -4 -268 -5 -370 -4 -204 1 -242 34 -271 12 -10 22 -20 23 -21
1 -1 111 -4 246 -8 l245 -7 -240 1 c-216 1 -244 3 -269 19 -57 38 -56 25 -56
771 0 609 2 690 16 726 27 68 36 70 321 67 251 -2 251 -2 277 -26z m-194 -771
l0 -570 -90 0 -90 0 -2 570 -3 570 93 0 92 0 0 -570z"/>
<path d="M3361 2048 c-14 -7 -30 -27 -37 -43 -15 -38 -15 -39 170 -493 76
-189 132 -341 129 -349 -4 -10 -2 -14 5 -10 6 5 22 -24 42 -75 18 -46 38 -96
45 -113 8 -16 52 -124 100 -240 47 -115 94 -222 105 -237 11 -14 16 -28 12
-31 -4 -2 -1 -2 6 0 7 1 22 -2 33 -7 11 -6 97 -11 203 -11 211 0 236 6 256 66
13 41 14 37 -61 229 -32 81 -56 152 -53 157 3 5 1 9 -3 9 -13 0 -35 68 -27 81
4 7 3 9 -3 6 -11 -7 -17 6 -81 168 -22 55 -65 162 -96 238 -58 144 -64 163
-44 151 7 -4 8 -3 4 5 -4 6 -11 9 -16 6 -12 -7 -32 58 -24 81 4 13 3 15 -3 6
-7 -9 -13 -6 -21 13 -7 15 -10 31 -7 36 4 5 2 9 -3 9 -5 0 -33 61 -62 136 -29
75 -63 151 -75 168 -12 17 -20 37 -19 44 1 7 0 8 -3 2 -2 -5 -9 -10 -14 -10
-6 0 -8 4 -5 9 10 15 -425 14 -453 -1z"/>
</g>
</svg>
