<svg xmlns="http://www.w3.org/2000/svg" width="1024" height="1024" viewBox="0 0 1024 1024" version="1.1"><path d="M 481.500 174.035 C 473.250 174.373, 482.025 174.446, 501 174.197 C 519.975 173.947, 535.688 173.576, 535.917 173.371 C 536.504 172.848, 499.453 173.300, 481.500 174.035 M 539.083 174.363 C 539.313 174.562, 546.925 174.951, 556 175.226 C 565.674 175.519, 569.604 175.421, 565.500 174.987 C 558.131 174.209, 538.371 173.742, 539.083 174.363 M 588.500 178.473 C 597.265 179.981, 602.557 180.285, 597 178.961 C 595.075 178.503, 590.575 177.896, 587 177.612 L 580.500 177.097 588.500 178.473 M 426 179.500 C 422.975 180.202, 421.400 180.806, 422.500 180.844 C 423.600 180.882, 427.200 180.303, 430.500 179.559 C 433.800 178.814, 435.375 178.209, 434 178.215 C 432.625 178.220, 429.025 178.798, 426 179.500 M 414.500 181.719 C 409.145 183.024, 393.871 188.205, 394.253 188.587 C 394.492 188.826, 396.671 188.311, 399.094 187.442 C 401.517 186.574, 407.325 184.802, 412 183.505 C 419.077 181.541, 421.068 180.119, 414.500 181.719 M 609 182.185 C 625.106 187.306, 630.466 188.868, 630.797 188.537 C 631.310 188.023, 613.437 182.373, 609 181.646 L 605.500 181.073 609 182.185 M 379.750 194.563 C 376.038 196.469, 373 198.252, 373 198.526 C 373 198.973, 386.900 192.316, 387.917 191.383 C 389.284 190.126, 385.594 191.564, 379.750 194.563 M 647.685 196.837 C 678.156 213.271, 698.006 234.318, 716.217 269.500 C 723.700 283.957, 725.157 285.398, 718.994 272.246 C 707.367 247.435, 688.038 223.375, 667.500 208.148 C 659.412 202.152, 644.887 193.660, 640.750 192.509 C 639.513 192.164, 642.633 194.112, 647.685 196.837 M 477.500 197.933 C 473.100 198.245, 489.300 198.500, 513.500 198.500 C 537.700 198.500, 554.125 198.221, 550 197.881 C 540.775 197.119, 488.462 197.157, 477.500 197.933 M 458.768 199.725 C 460.565 199.947, 463.265 199.943, 464.768 199.715 C 466.271 199.486, 464.800 199.304, 461.500 199.310 C 458.200 199.315, 456.971 199.502, 458.768 199.725 M 569.500 200.477 C 582.407 201.955, 589.331 202.234, 582 200.981 C 579.525 200.558, 573 199.962, 567.500 199.658 L 557.500 199.104 569.500 200.477 M 446 200.679 C 435.289 202.419, 420.981 205.314, 421.336 205.670 C 421.575 205.909, 426.660 205.193, 432.635 204.080 C 438.611 202.967, 446.200 201.648, 449.500 201.149 C 453.099 200.605, 454.100 200.248, 452 200.257 C 450.075 200.265, 447.375 200.455, 446 200.679 M 362.482 204.657 C 347.063 214.945, 326.790 237.018, 315.788 255.500 C 311.658 262.437, 300.981 283.599, 301.039 284.733 C 301.060 285.155, 304.323 279.200, 308.289 271.500 C 316.571 255.420, 320.758 248.709, 329.503 237.500 C 336.779 228.174, 350.924 214.295, 359.500 208.069 C 362.800 205.673, 365.928 203.327, 366.450 202.856 C 368.317 201.173, 366.398 202.044, 362.482 204.657 M 588.500 202.671 C 589.600 202.912, 595.153 204.244, 600.841 205.631 C 606.528 207.017, 611.395 207.939, 611.655 207.678 C 612.268 207.065, 590.965 201.964, 588.430 202.116 C 586.602 202.226, 586.606 202.255, 588.500 202.671 M 406.500 209.437 C 383.723 217.199, 364.909 229.763, 351.148 246.400 C 343.829 255.248, 337.181 265.020, 334.654 270.644 C 332.859 274.638, 332.596 274.800, 325.154 276.464 C 317.823 278.103, 310.049 280.722, 316 279.548 C 317.375 279.277, 321.767 278.284, 325.760 277.342 L 333.020 275.630 336.597 269.122 C 345.168 253.529, 360.488 236.060, 373.449 227.100 C 382.807 220.631, 396.806 213.668, 407.841 209.994 C 412.603 208.408, 415.825 207.097, 415 207.081 C 414.175 207.064, 410.350 208.125, 406.500 209.437 M 621.500 211.609 C 634.219 216.532, 638.384 218.598, 647.711 224.611 C 662.494 234.141, 677.163 249.685, 687.422 266.692 L 692.645 275.349 703.072 278.085 C 708.808 279.590, 715.660 281.755, 718.300 282.896 C 720.941 284.038, 722.845 284.558, 722.531 284.051 C 721.736 282.764, 712.135 279.278, 702.561 276.801 C 698.128 275.653, 693.993 274.320, 693.373 273.837 C 692.754 273.355, 690.194 269.428, 687.686 265.111 C 677.477 247.540, 659.982 230.333, 641.500 219.686 C 633.954 215.339, 616.204 207.926, 613.664 208.062 C 613.024 208.096, 616.550 209.692, 621.500 211.609 M 525 270.994 C 618.578 271.813, 639.576 272.888, 673.831 278.612 C 678.963 279.470, 683.375 279.958, 683.636 279.698 C 684.723 278.610, 649.325 273.844, 626 271.938 C 617.978 271.282, 577.399 270.715, 526 270.540 L 439.500 270.246 525 270.994 M 415.250 271.742 C 418.962 271.934, 425.038 271.934, 428.750 271.742 C 432.462 271.549, 429.425 271.392, 422 271.392 C 414.575 271.392, 411.538 271.549, 415.250 271.742 M 389 273.044 C 385.900 273.448, 388.737 273.539, 395.500 273.252 C 402.100 272.972, 407.688 272.576, 407.917 272.371 C 408.584 271.776, 395.017 272.259, 389 273.044 M 371 275 C 366.936 275.632, 366.839 275.706, 370 275.762 C 371.925 275.797, 375.750 275.474, 378.500 275.046 C 383.229 274.309, 383.284 274.268, 379.500 274.284 C 377.300 274.293, 373.475 274.615, 371 275 M 344 279 C 341.344 279.559, 341.103 279.755, 343 279.811 C 344.375 279.851, 347.300 279.512, 349.500 279.057 C 352.834 278.368, 353.001 278.233, 350.500 278.247 C 348.850 278.256, 345.925 278.595, 344 279 M 306.750 282.068 C 304.688 283.157, 303 284.237, 303 284.468 C 303 284.872, 312.066 281.126, 312.917 280.370 C 314.228 279.205, 309.934 280.387, 306.750 282.068 M 332.500 281.472 C 327.130 283.242, 329.244 283.311, 335.500 281.570 C 338.250 280.805, 339.600 280.173, 338.500 280.166 C 337.400 280.159, 334.700 280.747, 332.500 281.472 M 696 283.386 C 702.325 285.173, 708.625 286.963, 710 287.365 C 711.818 287.896, 712.078 287.827, 710.956 287.113 C 709.058 285.906, 688.076 279.989, 686 280.076 C 685.175 280.110, 689.675 281.600, 696 283.386 M 723.500 293.358 C 734.319 298.611, 747.966 307.941, 753.126 313.613 C 766.682 328.518, 774.766 346.231, 778.630 369.500 C 781.189 384.907, 781.216 430.829, 778.674 445.401 C 774.537 469.130, 765.529 486.712, 750.011 501.351 C 730.658 519.608, 705.734 529.005, 671.523 530.944 C 644.736 532.463, 623.387 529.239, 606.624 521.146 C 593.324 514.724, 585.061 508.689, 570.470 494.741 C 556.311 481.206, 548.601 475.949, 537.578 472.316 C 530.124 469.859, 528.148 469.647, 512 469.577 C 496.108 469.507, 493.827 469.721, 487.172 471.900 C 476.555 475.378, 469.593 480.351, 453.662 495.834 C 438.153 510.907, 430.927 516.307, 418.619 522.022 C 398.086 531.556, 368.888 534.185, 336.500 529.416 C 317.323 526.592, 303.796 521.577, 288.719 511.703 C 265.527 496.513, 253.213 477.422, 247.307 447.500 C 244.659 434.083, 244.676 379.325, 247.332 367 C 251.208 349.010, 256.765 335.186, 264.409 324.518 C 272.793 312.818, 286.135 301.583, 301.500 293.286 C 308.163 289.687, 308.326 288.785, 301.710 292.125 C 276.309 304.949, 257.408 326.731, 250.191 351.500 C 244.885 369.707, 244.498 373.548, 244.540 407.500 C 244.583 442.122, 245.304 448.848, 250.706 464.993 C 258.547 488.432, 275.268 507.139, 299 519.025 C 318.195 528.638, 336.354 532.295, 365.500 532.415 C 385.089 532.496, 393.584 531.549, 406.253 527.873 C 424.027 522.715, 434.954 515.566, 456.156 495.224 C 474.123 477.984, 480.425 474.113, 495 471.360 C 506.619 469.166, 525.724 469.952, 535.500 473.026 C 549.490 477.426, 554.779 480.961, 571.341 496.981 C 584.242 509.460, 593.168 516.076, 604.353 521.452 C 622.038 529.951, 634.389 532.381, 660 532.399 C 680.873 532.415, 695.553 530.419, 710.433 525.545 C 749.470 512.757, 772.679 486.239, 779.689 446.413 C 782.193 432.187, 782.177 382.962, 779.663 368.500 C 774.504 338.809, 762.747 318.380, 741.944 302.959 C 734.888 297.728, 716.722 288.014, 714 288.017 C 713.175 288.018, 717.450 290.421, 723.500 293.358 M 450.500 293.959 C 442.250 294.257, 463.850 294.352, 498.500 294.170 C 533.150 293.989, 561.950 293.687, 562.500 293.499 C 564.079 292.960, 467.160 293.359, 450.500 293.959 M 576.500 294.629 C 637.751 297.874, 650.788 299.057, 675.500 303.617 C 728.877 313.465, 751.702 335.248, 757.105 381.500 C 758.881 396.703, 757.690 432.762, 754.993 445.447 C 747.365 481.326, 724.141 500.489, 681.500 506.089 C 670.270 507.563, 641.265 506.666, 631.563 504.544 C 613.213 500.530, 604.238 495.191, 586.330 477.638 C 568.669 460.327, 557.904 453.462, 541 448.727 C 534.482 446.902, 530.686 446.619, 512 446.571 C 488.549 446.510, 484.111 447.209, 471.421 452.963 C 461.415 457.500, 453.717 463.338, 438.917 477.615 C 418.342 497.463, 409.669 502.360, 389.486 505.526 C 375.029 507.794, 346.213 507.102, 331.868 504.143 C 314.273 500.513, 299.385 492.802, 289.050 481.966 C 272.825 464.952, 267.256 443.452, 268.337 402 C 268.960 378.141, 270.839 366.249, 276.040 353.248 C 280.978 340.905, 286.933 332.741, 297 324.517 C 308.863 314.824, 321.527 309.785, 347.500 304.423 C 356.300 302.607, 362.510 301.093, 361.301 301.060 C 354.617 300.877, 325.509 308.123, 314.500 312.710 C 293.022 321.659, 276.544 341.497, 271.066 365 C 265.322 389.647, 265.613 431.998, 271.670 452.963 C 279.712 480.800, 299.488 498.170, 331 505.073 C 343.365 507.782, 373.934 508.837, 387.318 507.017 C 408.773 504.098, 417.279 499.483, 438.196 479.410 C 454.292 463.964, 463.339 457.272, 473.981 452.941 C 485.583 448.219, 490.831 447.495, 513 447.557 C 532.351 447.611, 533.993 447.766, 542.297 450.316 C 559.217 455.513, 568.519 461.619, 587.467 479.967 C 604.697 496.653, 611.696 500.955, 628.386 505.120 C 640.327 508.101, 670.369 508.853, 686 506.563 C 708.350 503.289, 723.962 496.195, 736.582 483.579 C 748.295 471.870, 754.263 458.610, 757.545 437 C 759.269 425.653, 759.506 389.781, 757.932 378.467 C 752.789 341.486, 736.396 321.288, 701.621 309.082 C 677.988 300.787, 637.398 295.612, 588.275 294.633 C 577.949 294.427, 572.650 294.425, 576.500 294.629 M 414.500 295.508 C 413.950 295.701, 407.650 296.209, 400.500 296.637 C 393.350 297.065, 388.625 297.550, 390 297.714 C 391.375 297.878, 401.950 297.392, 413.500 296.633 C 428.667 295.636, 431.861 295.239, 425 295.205 C 419.775 295.179, 415.050 295.316, 414.500 295.508 M 231.500 356.399 C 222.452 359.260, 217.526 363.390, 214.081 371 C 212.186 375.186, 212.042 377.493, 212.022 404.068 C 211.996 437.732, 212.550 440.944, 219.538 447.672 C 222.683 450.699, 225.803 452.465, 230.913 454.111 C 234.786 455.358, 238.198 456.136, 238.495 455.839 C 238.792 455.541, 238.363 452.103, 237.542 448.198 C 233.226 427.681, 232.919 384.952, 236.952 366 C 238.064 360.775, 238.980 356.163, 238.987 355.750 C 239.006 354.683, 236.141 354.931, 231.500 356.399 M 787.284 357.750 C 787.566 359.262, 788.603 364.550, 789.589 369.500 C 792.128 382.242, 792.078 425.888, 789.507 440.500 C 788.540 446, 787.518 451.806, 787.238 453.402 C 786.742 456.226, 786.820 456.287, 790.114 455.660 C 791.976 455.305, 796.408 453.549, 799.961 451.757 C 805.097 449.168, 807.046 447.491, 809.461 443.581 L 812.500 438.662 812.791 407.083 C 813.127 370.666, 812.986 369.855, 805.072 362.778 C 800.626 358.801, 792.528 355, 788.502 355 C 787.159 355, 786.887 355.613, 787.284 357.750 M 230.438 357.868 C 223.457 360.251, 219.488 363.314, 216.254 368.815 L 213.500 373.500 213.192 402.492 C 212.990 421.510, 213.268 433.007, 213.999 435.912 C 215.336 441.219, 219.269 446.953, 223.449 449.686 C 226.562 451.721, 236.837 455.496, 237.490 454.844 C 237.688 454.646, 237.234 451.835, 236.482 448.598 C 232.210 430.221, 231.907 384.727, 235.932 366 C 237.055 360.775, 237.980 356.387, 237.987 356.250 C 238.019 355.647, 235.130 356.267, 230.438 357.868 M 788.011 356.643 C 788.017 357.114, 788.644 359.549, 789.404 362.054 C 793.751 376.375, 794.185 426.259, 790.126 444.953 C 788.997 450.152, 788.208 454.541, 788.372 454.706 C 789.137 455.471, 800.685 450.715, 803.762 448.368 C 805.661 446.919, 808.287 443.431, 809.598 440.617 C 811.942 435.582, 811.980 435.020, 811.968 405.500 C 811.957 378.589, 811.768 375.088, 810.129 371.500 C 807.658 366.091, 800.157 359.389, 795.028 358.008 C 792.744 357.392, 790.228 356.641, 789.437 356.338 C 788.647 356.034, 788.005 356.172, 788.011 356.643 M 256.003 578.250 C 256.006 649.431, 256.234 662.802, 257.577 670.481 C 264.643 710.877, 294.997 741.501, 336.500 750.107 C 345.074 751.885, 353.394 751.974, 512.215 751.987 C 672.106 751.999, 679.330 751.922, 688.715 750.095 C 704.773 746.968, 718.576 740.990, 730.648 731.934 C 740.110 724.836, 743.287 721.708, 750.203 712.682 C 757.596 703.034, 763.101 691.485, 766.447 678.605 L 769 668.781 769 581.965 L 769 495.149 757.250 506.824 L 745.500 518.500 745.296 579 C 745.028 658.357, 744.723 667.665, 742.099 676.500 C 735.547 698.561, 718.338 716.023, 695.966 723.312 C 679.490 728.679, 685.841 728.500, 512 728.500 C 359.279 728.500, 350.038 728.401, 342 726.670 C 310.871 719.970, 290.789 701.598, 282.789 672.500 C 280.641 664.688, 280.576 662.765, 280.045 590.840 L 279.500 517.180 277 515.210 C 268.688 508.662, 264.623 504.882, 261.869 501.137 C 260.159 498.811, 258.514 497.153, 258.214 497.452 C 257.269 498.398, 265.406 507.287, 272.335 512.876 L 279 518.253 279 586.403 C 279 628.428, 279.406 657.801, 280.060 663.026 C 282.832 685.180, 293.892 703.906, 310.732 714.961 C 320.233 721.199, 330.028 725.312, 341 727.672 C 349.039 729.401, 358.416 729.500, 514 729.500 L 678.500 729.500 687.500 727.145 C 698.454 724.279, 704.767 721.715, 712 717.193 C 729.393 706.320, 739.084 693.213, 744.223 673.614 C 746.281 665.763, 746.363 663.097, 746.743 591.404 L 747.136 517.307 752.111 513.513 C 754.848 511.426, 759.557 506.990, 762.575 503.654 L 768.064 497.589 767.764 584.544 L 767.465 671.500 765.192 679.500 C 755.271 714.421, 728.144 739.695, 691 748.625 C 683.961 750.318, 673.368 750.450, 518.500 750.770 C 397.952 751.020, 350.941 750.800, 344 749.956 C 334.102 748.752, 323.067 745.688, 313.688 741.541 C 291.607 731.775, 270.846 709.481, 262.899 687 C 257.528 671.808, 257.500 671.244, 257.500 579.750 C 257.500 533.138, 257.163 495, 256.750 495 C 256.337 495, 256.001 532.462, 256.003 578.250 M 364.209 553.646 C 360.036 555.730, 357.289 559.215, 355.976 564.087 C 355.304 566.586, 355.042 591.444, 355.223 635.707 L 355.500 703.500 357.902 707.365 C 361.922 713.832, 362.974 714, 399.333 714 C 430.673 714, 431.817 713.932, 434.385 711.912 C 440.217 707.324, 440 710.378, 440 632.991 L 440 561.884 435.568 557.192 L 431.137 552.500 399.318 552.251 C 371.472 552.034, 367.089 552.208, 364.209 553.646 M 466.500 553.412 C 464.850 554.145, 462.375 555.963, 461 557.453 L 458.500 560.160 458.231 632.092 C 457.933 711.620, 457.655 707.961, 464.299 712.067 C 467.305 713.925, 469.073 714.029, 493.366 713.773 L 519.232 713.500 522.635 709.561 L 526.038 705.623 525.769 633.384 C 525.503 561.905, 525.478 561.116, 523.412 558.323 C 519.163 552.580, 516.729 552.097, 492 552.087 C 475.400 552.081, 468.713 552.428, 466.500 553.412 M 546 552.706 C 542.703 553.912, 540 557.398, 540.018 560.424 C 540.028 562.116, 541.627 567.325, 543.572 572 C 545.516 576.675, 553.563 596.475, 561.454 616 C 601.636 715.426, 598.615 708.519, 603.336 711.750 C 606.464 713.891, 607.554 714, 625.796 714 L 644.968 714 648.184 711.127 C 650.635 708.937, 651.389 707.450, 651.354 704.877 C 651.316 702.175, 633.340 653.834, 630.203 648 C 629.759 647.175, 621.545 626.771, 611.948 602.657 C 594.488 558.786, 592.573 554.936, 587.185 552.882 C 584.713 551.940, 548.519 551.785, 546 552.706 M 365.538 554.499 C 360.950 556.133, 358.434 558.987, 356.980 564.205 C 356.304 566.631, 356.043 591.136, 356.224 635.205 C 356.493 700.800, 356.551 702.588, 358.534 706 C 362.473 712.779, 363.730 712.997, 398.846 712.998 C 426.406 713, 430.535 712.797, 433.035 711.320 C 439.361 707.583, 439.134 710.695, 438.802 632.330 L 438.500 561.160 436 558.451 C 431.200 553.250, 429.433 552.996, 398.282 553.044 C 376.133 553.078, 368.587 553.413, 365.538 554.499 M 467.094 554.328 C 465.220 554.973, 462.745 556.770, 461.594 558.323 C 459.521 561.117, 459.497 561.863, 459.230 632.130 C 458.930 711.159, 458.694 708.203, 465.583 711.472 C 468.520 712.866, 472.537 713.056, 493.584 712.800 L 518.157 712.500 521.604 708.737 L 525.051 704.974 524.776 633.237 C 524.466 552.690, 524.971 557.806, 517.024 554.626 C 512.158 552.679, 472.575 552.443, 467.094 554.328 M 545.285 554.448 C 539.195 557.149, 539.680 560.150, 550.295 585.500 C 553.289 592.650, 558.021 604.125, 560.811 611 C 603.507 716.232, 599.939 707.992, 603.991 710.750 C 607.114 712.876, 608.279 713, 625.198 713 C 647.220 713, 650 712.028, 650 704.328 C 650 701.826, 640.889 678.130, 614.114 611 C 593.722 559.873, 592.901 558.012, 589.677 555.606 C 587.066 553.659, 585.409 553.482, 567.677 553.261 C 552.827 553.075, 547.775 553.343, 545.285 554.448 M 379 633.500 L 379 692 398 692 L 417 692 417 634.131 L 417 576.262 413.250 575.642 C 411.188 575.301, 402.637 575.017, 394.250 575.011 L 379 575 379 633.500 M 481 633.466 L 481 692 492.008 692 L 503.016 692 502.758 633.750 L 502.500 575.500 491.750 575.216 L 481 574.932 481 633.466 M 380 634 L 380 691 398 691 L 416 691 416 634 L 416 577 398 577 L 380 577 380 634 M 482.024 634 L 482.094 691 492.047 691 L 502 691 502 634 L 502 577 491.977 577 L 481.955 577 482.024 634" stroke="none" fill="#0a1a3a" fill-rule="evenodd"/><path d="M 490.500 174.118 C 493.894 174.468, 489.440 174.685, 480.249 174.618 C 471.310 174.553, 463.998 174.892, 463.999 175.370 C 463.999 175.849, 461.309 176.046, 458.021 175.808 C 454.732 175.570, 451.920 175.739, 451.771 176.183 C 451.622 176.628, 447.833 177.106, 443.351 177.246 C 438.869 177.386, 435.446 177.898, 435.743 178.384 C 436.041 178.871, 434.894 179.065, 433.195 178.815 C 431.338 178.543, 430.346 178.751, 430.708 179.337 C 431.084 179.945, 429.842 180.076, 427.405 179.684 C 424.544 179.225, 423.901 179.335, 425 180.099 C 426.142 180.893, 425.725 181.047, 423.250 180.744 C 421.462 180.525, 420 180.771, 420 181.290 C 420 181.809, 418.889 182.021, 417.530 181.761 C 416.035 181.475, 415.305 181.684, 415.679 182.289 C 416.057 182.902, 415.281 183.096, 413.679 182.789 C 412.239 182.514, 411.265 182.619, 411.514 183.023 C 412.117 183.998, 406.088 185.172, 404.743 184.341 C 404.164 183.984, 403.982 184.163, 404.339 184.739 C 405.107 185.982, 400.408 187.370, 398.800 186.376 C 398.129 185.962, 397.973 186.147, 398.405 186.845 C 399.068 187.919, 397.675 188.396, 394.250 188.269 C 393.563 188.243, 393 188.670, 393 189.218 C 393 189.766, 392.302 189.946, 391.448 189.618 C 390.434 189.229, 390.144 189.425, 390.612 190.181 C 391.090 190.955, 390.775 191.128, 389.664 190.701 C 388.749 190.350, 388 190.409, 388 190.832 C 388 192.089, 378.964 196.096, 377.780 195.364 C 377.155 194.977, 376.976 195.152, 377.360 195.773 C 377.893 196.636, 374.255 198.737, 373.250 198.147 C 373.113 198.066, 372.084 198.916, 370.964 200.036 C 369.843 201.157, 368.493 201.805, 367.964 201.477 C 367.434 201.150, 367 201.293, 367 201.796 C 367 202.791, 355.552 211.113, 354.280 211.043 C 353.851 211.019, 353.500 211.441, 353.500 211.981 C 353.500 212.520, 352.488 213.671, 351.250 214.537 C 350.012 215.404, 349 215.784, 349 215.382 C 349 214.980, 347.889 215.695, 346.531 216.971 C 345.173 218.247, 344.262 219.615, 344.507 220.012 C 345.181 221.102, 341.461 224.116, 340.509 223.252 C 340.052 222.838, 339.966 223.002, 340.316 223.616 C 341.087 224.968, 337.650 228.317, 336.586 227.252 C 336.172 226.838, 335.977 226.950, 336.152 227.500 C 336.603 228.915, 331.863 235.033, 330.816 234.386 C 330.340 234.092, 330.033 234.222, 330.134 234.676 C 330.476 236.212, 328.796 238.992, 327.870 238.420 C 327.364 238.107, 327.057 238.222, 327.188 238.676 C 327.611 240.146, 324.929 244.074, 323.925 243.454 C 323.389 243.122, 323.015 243.222, 323.094 243.676 C 323.464 245.806, 322.894 247.052, 321.845 246.405 C 321.210 246.012, 320.960 246.126, 321.289 246.658 C 322.099 247.969, 318.565 253.212, 317.514 252.258 C 317.055 251.841, 317.003 252.062, 317.398 252.748 C 318.244 254.219, 315.664 258.331, 314.577 257.244 C 314.168 256.835, 313.978 256.950, 314.154 257.500 C 314.662 259.080, 311.864 265.034, 310.895 264.435 C 310.416 264.139, 310.319 264.668, 310.681 265.612 C 311.125 266.769, 310.962 267.095, 310.181 266.612 C 309.401 266.130, 309.238 266.456, 309.681 267.612 C 310.125 268.769, 309.962 269.095, 309.181 268.612 C 308.401 268.130, 308.238 268.456, 308.681 269.612 C 309.125 270.769, 308.962 271.095, 308.181 270.612 C 307.401 270.130, 307.238 270.456, 307.681 271.612 C 308.164 272.868, 307.985 273.109, 307.015 272.510 C 306.151 271.975, 305.930 272.078, 306.380 272.806 C 306.759 273.419, 305.682 276.668, 303.987 280.025 L 300.906 286.129 303.858 283.947 C 305.588 282.668, 307.327 282.084, 308.059 282.537 C 308.838 283.018, 309.057 282.901, 308.640 282.227 C 307.873 280.986, 311.470 279.554, 312.991 280.494 C 313.546 280.837, 314 280.589, 314 279.942 C 314 279.259, 314.838 278.986, 316.001 279.290 C 317.102 279.578, 317.765 279.428, 317.474 278.957 C 316.775 277.827, 323.520 276.585, 325.090 277.555 C 325.917 278.067, 326.051 277.891, 325.506 277.010 C 324.902 276.032, 325.351 275.834, 327.321 276.211 C 328.761 276.486, 329.702 276.326, 329.411 275.856 C 329.120 275.385, 329.809 275, 330.941 275 C 332.073 275, 333 274.523, 333 273.941 C 333 273.359, 333.445 273.157, 333.989 273.493 C 334.576 273.856, 334.710 273.407, 334.319 272.388 C 333.836 271.132, 334.015 270.891, 334.985 271.490 C 335.826 272.010, 336.069 271.921, 335.651 271.245 C 334.719 269.736, 335.999 266.881, 337.259 267.660 C 337.865 268.035, 338.013 267.830, 337.608 267.175 C 336.699 265.704, 338.801 261.759, 340.075 262.546 C 340.611 262.878, 340.985 262.778, 340.906 262.324 C 340.536 260.194, 341.106 258.948, 342.155 259.595 C 342.862 260.033, 343.038 259.870, 342.609 259.176 C 341.720 257.737, 345.979 251.869, 347.314 252.694 C 347.861 253.032, 348.033 252.863, 347.696 252.317 C 347.359 251.772, 348.464 249.789, 350.152 247.913 C 351.840 246.036, 352.609 245.400, 351.861 246.500 C 350.614 248.333, 350.645 248.386, 352.239 247.137 C 353.195 246.387, 353.717 245.351, 353.398 244.835 C 352.648 243.622, 362.603 233.636, 363.815 234.385 C 364.320 234.697, 365.580 233.951, 366.616 232.726 C 368.484 230.519, 368.482 230.513, 366.445 232 C 365.314 232.825, 365.673 232.249, 367.243 230.721 C 368.813 229.192, 370.536 228.213, 371.073 228.545 C 371.610 228.877, 371.926 228.553, 371.775 227.824 C 371.624 227.096, 372.270 226.560, 373.211 226.632 C 374.152 226.705, 374.827 226.255, 374.711 225.632 C 374.595 225.010, 375.317 224.567, 376.317 224.650 C 377.316 224.732, 377.881 224.548, 377.573 224.240 C 376.636 223.303, 380.920 220.833, 382.156 221.597 C 382.851 222.026, 383.038 221.870, 382.627 221.205 C 381.781 219.837, 385.619 217.647, 387.175 218.608 C 387.825 219.010, 388.035 218.866, 387.667 218.271 C 386.846 216.941, 392.482 214.562, 394.094 215.558 C 394.924 216.071, 395.050 215.889, 394.490 214.985 C 393.891 214.015, 394.132 213.836, 395.388 214.319 C 396.544 214.762, 396.870 214.599, 396.388 213.819 C 395.905 213.038, 396.231 212.875, 397.388 213.319 C 398.407 213.710, 398.856 213.576, 398.493 212.989 C 397.936 212.087, 399.530 211.614, 402.739 211.730 C 403.421 211.754, 403.688 211.304, 403.333 210.730 C 402.926 210.071, 403.485 209.893, 404.845 210.249 C 406.228 210.611, 406.766 210.431, 406.345 209.749 C 405.924 209.067, 406.462 208.888, 407.845 209.249 C 409.032 209.560, 409.784 209.460, 409.518 209.028 C 408.934 208.084, 414.825 206.774, 416.103 207.563 C 416.596 207.868, 417 207.589, 417 206.942 C 417 206.259, 417.838 205.986, 419 206.290 C 420.100 206.577, 421 206.352, 421 205.790 C 421 205.227, 422.111 204.979, 423.470 205.239 C 424.948 205.522, 425.694 205.314, 425.328 204.721 C 424.954 204.117, 425.918 203.908, 427.805 204.185 C 429.662 204.457, 430.654 204.249, 430.292 203.663 C 429.916 203.055, 431.158 202.924, 433.595 203.316 C 436.474 203.778, 437.106 203.667, 436 202.892 C 434.892 202.116, 435.663 201.974, 438.948 202.352 C 442.064 202.710, 442.962 202.566, 441.948 201.872 C 440.911 201.163, 441.682 200.975, 444.666 201.209 C 447.049 201.397, 448.587 201.140, 448.259 200.611 C 447.917 200.057, 449.863 199.939, 453.093 200.317 C 457.024 200.776, 458.090 200.661, 457 199.893 C 455.921 199.133, 457.887 198.994, 464 199.396 C 470.128 199.799, 472.081 199.660, 471 198.896 C 469.922 198.135, 472.732 197.959, 481 198.272 C 487.325 198.511, 490.700 198.386, 488.500 197.995 C 486.300 197.604, 498 197.284, 514.500 197.284 C 531 197.284, 542.700 197.611, 540.500 198.010 C 538.164 198.435, 540.869 198.576, 547 198.351 C 553.857 198.099, 556.806 198.283, 555.500 198.881 C 554.180 199.486, 556.220 199.635, 561.500 199.320 C 566.336 199.031, 569.002 199.195, 568.241 199.735 C 567.464 200.287, 569.376 200.508, 573.241 200.312 C 577.637 200.089, 578.905 200.270, 577.500 200.918 C 576.139 201.545, 577.226 201.655, 580.907 201.262 C 584.705 200.856, 586.111 201.011, 585.634 201.783 C 585.165 202.542, 586.090 202.697, 588.633 202.285 C 590.913 201.915, 592.082 202.059, 591.708 202.663 C 591.346 203.249, 592.338 203.457, 594.195 203.185 C 596.082 202.908, 597.046 203.117, 596.672 203.721 C 596.302 204.320, 597.094 204.514, 598.679 204.211 C 600.281 203.904, 601.057 204.098, 600.679 204.711 C 600.301 205.323, 601.077 205.517, 602.679 205.211 C 604.119 204.935, 605.050 205.113, 604.748 205.605 C 604.446 206.097, 605.816 206.537, 607.794 206.583 C 609.771 206.629, 611.548 207.144, 611.742 207.727 C 611.937 208.310, 613.045 208.540, 614.204 208.236 C 615.768 207.827, 616.103 208.024, 615.502 208.997 C 614.963 209.868, 615.081 210.068, 615.851 209.592 C 617.397 208.637, 624.060 211.094, 623.292 212.336 C 622.958 212.877, 623.208 212.990, 623.854 212.590 C 625.314 211.688, 629.211 212.850, 628.513 213.979 C 628.229 214.438, 628.968 214.560, 630.155 214.249 C 631.762 213.829, 632.106 214.020, 631.502 214.997 C 630.985 215.834, 631.082 216.067, 631.771 215.642 C 633.250 214.728, 638.088 217.048, 637.314 218.301 C 636.961 218.873, 637.190 219.001, 637.844 218.597 C 639.265 217.718, 643.274 220.363, 642.244 221.500 C 641.835 221.951, 642.062 221.997, 642.748 221.602 C 644.066 220.844, 648.387 223.280, 647.427 224.240 C 647.119 224.548, 647.684 224.733, 648.683 224.650 C 649.714 224.565, 650.381 225.073, 650.225 225.824 C 650.074 226.553, 650.345 226.905, 650.828 226.606 C 651.311 226.308, 652.559 226.758, 653.603 227.606 C 654.646 228.454, 654.868 228.820, 654.095 228.420 C 653.164 227.936, 652.935 228.085, 653.415 228.862 C 653.813 229.506, 654.535 229.787, 655.021 229.487 C 655.506 229.187, 657.187 230.192, 658.757 231.721 C 660.327 233.249, 660.686 233.825, 659.555 233 C 657.518 231.513, 657.516 231.519, 659.384 233.726 C 660.420 234.951, 661.604 235.745, 662.015 235.491 C 663.108 234.815, 674.045 245.774, 673.750 247.249 C 673.613 247.937, 674.049 248.392, 674.720 248.260 C 675.895 248.029, 677.697 250.430, 677.901 252.500 C 677.956 253.050, 678.337 253.507, 678.750 253.515 C 680.507 253.551, 682.094 255.312, 681.580 256.653 C 681.273 257.451, 681.419 257.859, 681.902 257.561 C 683.160 256.783, 686.222 261.815, 685.381 263.278 C 684.995 263.950, 685.049 264.165, 685.500 263.756 C 686.637 262.726, 689.282 266.735, 688.403 268.156 C 687.930 268.923, 688.135 269.035, 689.015 268.490 C 690.008 267.877, 690.159 268.144, 689.617 269.555 C 689.220 270.591, 689.203 271.131, 689.580 270.753 C 689.957 270.376, 691.081 271.105, 692.078 272.372 C 693.347 273.986, 696.147 275.207, 701.433 276.452 C 705.582 277.429, 708.757 278.585, 708.487 279.021 C 708.218 279.457, 708.968 279.560, 710.155 279.249 C 711.538 278.888, 712.076 279.067, 711.655 279.749 C 711.234 280.431, 711.772 280.611, 713.155 280.249 C 714.762 279.829, 715.106 280.020, 714.502 280.997 C 713.962 281.870, 714.081 282.068, 714.854 281.590 C 716.490 280.579, 720.170 281.916, 719.360 283.227 C 718.953 283.886, 719.160 284.019, 719.889 283.568 C 720.548 283.161, 721.743 283.372, 722.544 284.036 C 724.604 285.746, 724.516 283.373, 722.442 281.300 C 721.586 280.443, 721.160 279.026, 721.495 278.152 C 721.831 277.277, 721.771 276.896, 721.361 277.305 C 720.404 278.263, 709.922 257.935, 710.713 256.655 C 711.068 256.082, 710.772 256.023, 709.985 256.510 C 709.025 257.103, 708.835 256.873, 709.294 255.676 C 709.685 254.657, 709.463 254.115, 708.714 254.262 C 708.046 254.393, 707.568 253.682, 707.650 252.683 C 707.733 251.684, 707.548 251.119, 707.240 251.427 C 706.303 252.364, 703.833 248.080, 704.597 246.844 C 705.025 246.150, 704.870 245.962, 704.208 246.371 C 702.887 247.188, 697.816 240.107, 698.699 238.678 C 699.034 238.135, 698.812 237.998, 698.205 238.373 C 697.106 239.053, 694.359 235.249, 694.812 233.676 C 694.943 233.222, 694.623 233.115, 694.101 233.437 C 693.148 234.027, 688.544 228.368, 688.456 226.500 C 688.430 225.950, 687.934 225.590, 687.353 225.701 C 686.772 225.811, 684.767 224.237, 682.898 222.203 L 679.500 218.504 683 221.502 L 686.500 224.500 683.608 221.297 C 682.018 219.536, 680.443 218.179, 680.108 218.283 C 678.861 218.668, 673.102 213.644, 673.694 212.686 C 674.032 212.139, 673.889 211.950, 673.377 212.267 C 672.864 212.584, 671.332 211.940, 669.972 210.835 C 668.612 209.730, 668.175 209.163, 669 209.574 C 669.883 210.013, 670.157 209.946, 669.667 209.410 C 669.208 208.910, 668.421 208.444, 667.917 208.375 C 667.412 208.306, 666.523 208.194, 665.941 208.125 C 665.359 208.056, 665.206 207.438, 665.601 206.750 C 665.997 206.063, 665.964 205.822, 665.529 206.215 C 664.358 207.272, 660.830 205.084, 661.627 203.795 C 662.038 203.130, 661.851 202.974, 661.156 203.403 C 659.735 204.282, 655.726 201.637, 656.756 200.500 C 657.165 200.049, 656.938 200.003, 656.252 200.398 C 654.806 201.229, 650.660 198.673, 651.726 197.607 C 652.118 197.215, 651.591 197.220, 650.555 197.617 C 649.254 198.117, 648.893 197.982, 649.388 197.181 C 649.870 196.401, 649.544 196.238, 648.388 196.681 C 647.231 197.125, 646.905 196.962, 647.388 196.181 C 647.870 195.401, 647.544 195.238, 646.388 195.681 C 645.132 196.164, 644.891 195.985, 645.490 195.015 C 646.010 194.174, 645.921 193.931, 645.245 194.349 C 643.846 195.213, 640.855 194.043, 641.558 192.907 C 641.858 192.421, 641.406 192.291, 640.552 192.618 C 639.698 192.946, 639 192.730, 639 192.138 C 639 191.546, 638.252 191.350, 637.336 191.701 C 636.225 192.128, 635.910 191.955, 636.388 191.181 C 636.842 190.447, 636.583 190.223, 635.681 190.569 C 634.898 190.869, 633.633 190.490, 632.870 189.727 C 632.107 188.964, 630.861 188.546, 630.102 188.799 C 629.328 189.057, 629.003 188.804, 629.362 188.223 C 629.763 187.574, 629.196 187.398, 627.845 187.751 C 626.462 188.112, 625.924 187.933, 626.345 187.251 C 626.766 186.569, 626.228 186.389, 624.845 186.751 C 623.462 187.112, 622.924 186.933, 623.345 186.251 C 623.766 185.569, 623.228 185.389, 621.845 185.751 C 620.462 186.112, 619.924 185.933, 620.345 185.251 C 620.766 184.569, 620.228 184.389, 618.845 184.751 C 617.523 185.097, 616.930 184.923, 617.313 184.302 C 617.701 183.674, 616.943 183.479, 615.321 183.789 C 613.719 184.096, 612.943 183.902, 613.321 183.289 C 613.699 182.677, 612.923 182.483, 611.321 182.789 C 609.641 183.111, 608.936 182.913, 609.353 182.238 C 609.758 181.583, 609.249 181.384, 608.001 181.710 C 606.901 181.998, 606 181.793, 606 181.255 C 606 180.717, 604.875 180.492, 603.500 180.755 C 602.125 181.018, 601 180.809, 601 180.290 C 601 179.771, 599.586 179.554, 597.858 179.808 C 596.126 180.062, 594.966 179.864, 595.274 179.366 C 595.583 178.866, 593.973 178.609, 591.666 178.791 C 588.805 179.016, 587.934 178.820, 588.885 178.167 C 589.807 177.533, 588.669 177.396, 585.485 177.755 C 582.356 178.107, 580.919 177.940, 581.332 177.272 C 581.744 176.605, 580.353 176.431, 577.332 176.772 C 574.613 177.078, 572.936 176.912, 573.272 176.369 C 573.609 175.823, 570.900 175.582, 566.672 175.780 C 562.727 175.965, 560.022 175.753, 560.659 175.308 C 561.297 174.864, 556.572 174.574, 550.159 174.665 C 543.747 174.755, 540.075 174.530, 542 174.165 C 543.925 173.799, 531.775 173.500, 515 173.500 C 498.225 173.500, 487.200 173.778, 490.500 174.118 M 499.250 269.748 C 507.913 269.915, 522.087 269.915, 530.750 269.748 C 539.413 269.582, 532.325 269.445, 515 269.445 C 497.675 269.445, 490.587 269.582, 499.250 269.748 M 433 270.970 C 434.675 271.582, 430.828 271.820, 421.343 271.691 C 413.557 271.586, 407.428 271.888, 407.722 272.362 C 408.016 272.836, 404.639 273.059, 400.218 272.858 C 395.797 272.658, 392.702 272.853, 393.340 273.293 C 393.978 273.733, 391.912 273.960, 388.749 273.797 C 385.585 273.634, 382.998 273.895, 382.999 274.377 C 382.999 274.860, 380.712 275.035, 377.915 274.766 C 374.672 274.454, 373.314 274.609, 374.165 275.193 C 375.036 275.790, 373.848 276, 370.750 275.797 C 368.137 275.626, 366 275.886, 366 276.374 C 366 276.863, 364.200 277.022, 362 276.727 C 359.325 276.368, 358.216 276.541, 358.653 277.247 C 359.097 277.965, 357.893 278.091, 354.903 277.638 C 351.594 277.137, 350.873 277.243, 352 278.065 C 353.139 278.896, 352.428 279.036, 349.052 278.648 C 345.922 278.289, 345.033 278.432, 346.052 279.133 C 347.100 279.854, 346.463 280.028, 343.750 279.765 C 341.688 279.565, 340 279.814, 340 280.317 C 340 280.821, 338.889 281.021, 337.530 280.761 C 336.035 280.475, 335.305 280.684, 335.679 281.289 C 336.057 281.902, 335.281 282.096, 333.679 281.789 C 332.057 281.479, 331.299 281.674, 331.687 282.302 C 332.070 282.923, 331.478 283.097, 330.156 282.751 C 328.970 282.441, 328 282.648, 328 283.210 C 328 283.773, 327.099 283.998, 325.999 283.710 C 324.738 283.380, 324.241 283.581, 324.655 284.251 C 325.076 284.933, 324.538 285.112, 323.156 284.751 C 321.970 284.441, 321 284.643, 321 285.201 C 321 285.758, 320.325 285.955, 319.500 285.638 C 318.675 285.322, 318 285.547, 318 286.138 C 318 286.730, 317.354 286.966, 316.565 286.663 C 315.775 286.360, 314.974 286.579, 314.784 287.148 C 314.594 287.718, 313.258 288.255, 311.815 288.342 C 310.372 288.429, 309.448 288.914, 309.760 289.420 C 310.072 289.926, 309.579 290.053, 308.664 289.701 C 307.749 289.350, 307 289.422, 307 289.860 C 307 290.832, 296.958 295.611, 295.728 295.225 C 295.246 295.074, 295.184 295.488, 295.590 296.145 C 296.092 296.958, 295.800 297.137, 294.676 296.706 C 293.657 296.315, 293.115 296.537, 293.262 297.286 C 293.393 297.954, 292.717 298.438, 291.761 298.363 C 290.804 298.288, 290.268 298.625, 290.570 299.113 C 291.078 299.934, 289.614 300.430, 287.676 300.094 C 287.222 300.015, 287.106 300.362, 287.417 300.866 C 288.045 301.882, 283.656 305.081, 281.121 305.453 C 280.230 305.584, 279.500 306.153, 279.500 306.717 C 279.500 308.281, 269.768 317.975, 268.799 317.376 C 268.332 317.087, 268.057 317.222, 268.188 317.676 C 268.611 319.146, 265.929 323.074, 264.925 322.454 C 264.389 322.122, 264.015 322.222, 264.094 322.676 C 264.464 324.806, 263.894 326.052, 262.845 325.405 C 262.211 325.012, 261.955 325.119, 262.279 325.642 C 263.052 326.892, 257.575 336.242, 256.626 335.293 C 256.224 334.890, 256.220 335.409, 256.617 336.445 C 257.117 337.746, 256.982 338.107, 256.181 337.612 C 255.401 337.130, 255.238 337.456, 255.681 338.612 C 256.164 339.868, 255.985 340.109, 255.015 339.510 C 254.111 338.950, 253.929 339.076, 254.442 339.906 C 255.438 341.518, 253.059 347.154, 251.729 346.333 C 251.158 345.980, 250.984 346.164, 251.341 346.743 C 252.198 348.129, 250.983 354.108, 249.972 353.482 C 249.540 353.216, 249.440 353.968, 249.751 355.155 C 250.084 356.431, 249.916 357.066, 249.338 356.709 C 248.750 356.346, 248.542 357.335, 248.815 359.195 C 249.081 361.007, 248.875 362.040, 248.315 361.695 C 247.756 361.349, 247.549 362.383, 247.815 364.195 C 248.081 366.007, 247.875 367.040, 247.315 366.695 C 246.756 366.349, 246.549 367.383, 246.815 369.195 C 247.065 370.894, 246.871 372.037, 246.384 371.735 C 245.898 371.433, 245.634 373.732, 245.797 376.843 C 245.960 379.954, 245.735 381.980, 245.297 381.345 C 244.859 380.711, 244.500 392.030, 244.500 406.500 C 244.500 420.970, 244.831 432.289, 245.235 431.655 C 245.882 430.637, 246.333 435.786, 246.459 445.656 C 246.482 447.391, 246.762 448.649, 247.082 448.451 C 247.672 448.084, 250.132 458.710, 250.370 462.655 C 250.442 463.839, 250.789 464.630, 251.143 464.411 C 252.093 463.824, 253.176 468.907, 252.376 470.200 C 251.989 470.826, 252.143 471.030, 252.728 470.668 C 253.315 470.306, 254.667 472.123, 255.840 474.849 C 256.981 477.502, 259.572 482.108, 261.597 485.086 C 263.622 488.064, 265.292 491.043, 265.306 491.706 C 265.321 492.369, 265.659 492.711, 266.057 492.465 C 266.815 491.996, 270.576 497.046, 270.267 498.117 C 270.169 498.457, 271.194 499.773, 272.544 501.042 C 273.895 502.310, 275 503.015, 275 502.606 C 275 502.198, 276.342 502.819, 277.982 503.987 C 279.622 505.155, 280.859 506.627, 280.732 507.258 C 280.604 507.890, 281.400 508.428, 282.500 508.453 C 283.616 508.479, 284.378 509.086, 284.225 509.824 C 284.074 510.553, 284.375 510.886, 284.894 510.565 C 286.133 509.800, 296.110 516.013, 295.424 517.123 C 295.134 517.593, 295.668 517.681, 296.612 517.319 C 297.769 516.875, 298.095 517.038, 297.612 517.819 C 297.130 518.599, 297.456 518.762, 298.612 518.319 C 299.769 517.875, 300.095 518.038, 299.612 518.819 C 299.130 519.599, 299.456 519.762, 300.612 519.319 C 301.769 518.875, 302.095 519.038, 301.612 519.819 C 301.130 520.599, 301.456 520.762, 302.612 520.319 C 303.868 519.836, 304.109 520.015, 303.510 520.985 C 302.950 521.889, 303.076 522.071, 303.906 521.558 C 305.338 520.673, 311.199 522.869, 310.486 524.023 C 310.217 524.458, 310.968 524.560, 312.155 524.249 C 313.762 523.829, 314.106 524.020, 313.502 524.997 C 312.955 525.881, 313.080 526.069, 313.884 525.572 C 315.228 524.741, 325.119 526.998, 324.503 527.995 C 324.284 528.349, 325.544 528.463, 327.303 528.248 C 329.817 527.942, 330.180 528.093, 329 528.960 C 327.821 529.825, 328.073 529.928, 330.173 529.441 C 331.643 529.101, 336.143 529.378, 340.173 530.057 C 348.573 531.473, 390.089 531.953, 389.268 530.625 C 388.970 530.143, 390.332 529.937, 392.293 530.166 C 394.255 530.395, 395.674 530.282, 395.448 529.916 C 394.870 528.981, 402.882 527.809, 404.215 528.633 C 404.842 529.020, 405.026 528.850, 404.646 528.236 C 403.846 526.942, 409.415 525.521, 411.130 526.580 C 411.841 527.020, 412.044 526.879, 411.640 526.227 C 410.830 524.916, 414.510 523.579, 416.146 524.590 C 416.923 525.070, 417.037 524.869, 416.490 523.985 C 415.891 523.015, 416.132 522.836, 417.388 523.319 C 418.332 523.681, 418.878 523.611, 418.601 523.164 C 417.945 522.101, 426.838 517.782, 428.090 518.556 C 428.618 518.882, 428.926 518.553, 428.775 517.824 C 428.624 517.096, 429.270 516.560, 430.211 516.632 C 431.152 516.705, 431.827 516.255, 431.711 515.632 C 431.595 515.010, 432.270 514.560, 433.211 514.632 C 434.152 514.705, 434.827 514.255, 434.711 513.632 C 434.595 513.010, 435.283 512.562, 436.239 512.637 C 437.196 512.712, 437.756 512.415, 437.484 511.975 C 437.023 511.228, 443.290 505.668, 445.500 504.864 C 446.050 504.664, 446.405 504.216, 446.290 503.870 C 445.886 502.658, 467.997 481.880, 469.019 482.512 C 469.586 482.862, 469.926 482.553, 469.775 481.824 C 469.623 481.092, 470.277 480.561, 471.239 480.637 C 472.196 480.712, 472.747 480.400, 472.465 479.943 C 471.698 478.702, 480.783 473.703, 482.564 474.386 C 483.411 474.711, 483.842 474.554, 483.522 474.036 C 483.202 473.519, 485.317 472.356, 488.220 471.453 C 494.317 469.557, 524.554 468.136, 522.052 469.863 C 521.029 470.570, 521.812 470.701, 524.724 470.310 C 531.835 469.356, 553.986 477.452, 552.310 480.393 C 551.963 481.002, 552.036 481.178, 552.471 480.785 C 553.642 479.728, 557.170 481.916, 556.373 483.205 C 555.947 483.895, 556.152 484.024, 556.920 483.550 C 558.415 482.625, 563.212 486.848, 562.315 488.300 C 561.972 488.855, 562.145 489.028, 562.700 488.685 C 563.255 488.342, 564.787 489.282, 566.105 490.774 L 568.500 493.486 566 491.493 L 563.500 489.500 565.411 491.756 C 566.461 492.997, 567.535 493.799, 567.796 493.537 C 568.567 492.766, 582.957 506.081, 582.719 507.344 C 582.598 507.980, 583.110 508.372, 583.855 508.215 C 585.689 507.829, 588.134 509.974, 587.334 511.268 C 586.968 511.861, 587.173 512.011, 587.810 511.617 C 589.282 510.708, 597.156 515.939, 596.329 517.277 C 595.973 517.852, 596.175 518.010, 596.784 517.634 C 597.937 516.921, 611.137 522.970, 610.539 523.937 C 610.348 524.247, 611.161 524.579, 612.345 524.676 C 613.530 524.773, 617.753 525.763, 621.729 526.876 C 632.863 529.992, 644.055 531.209, 661.043 531.151 C 678.719 531.090, 694.039 529.128, 706.811 525.287 C 711.590 523.850, 716.475 522.635, 717.667 522.587 C 718.858 522.539, 719.643 522.310, 719.411 522.077 C 719.178 521.845, 723.153 519.460, 728.244 516.778 C 733.335 514.096, 739.191 510.549, 741.258 508.897 C 743.422 507.167, 745.544 506.195, 746.258 506.606 C 746.941 506.999, 747.169 506.955, 746.764 506.507 C 746.014 505.679, 760.976 489.326, 762.132 489.711 C 762.480 489.827, 762.705 489.152, 762.632 488.211 C 762.560 487.270, 763.010 486.595, 763.632 486.711 C 764.255 486.827, 764.705 486.152, 764.632 485.211 C 764.560 484.270, 765.096 483.624, 765.824 483.775 C 766.553 483.926, 766.894 483.638, 766.583 483.135 C 765.773 481.824, 773.483 465.831, 774.486 466.742 C 774.945 467.159, 775.016 466.969, 774.644 466.320 C 774.272 465.670, 774.849 461.845, 775.926 457.820 C 779.798 443.342, 780.484 435.462, 780.394 406.500 C 780.320 382.422, 780.006 376.841, 778.154 366.654 C 776.970 360.138, 776.298 354.288, 776.661 353.654 C 777.025 353.017, 776.925 352.861, 776.438 353.306 C 775.368 354.282, 770.776 341.172, 771.676 339.715 C 772.024 339.152, 771.864 338.966, 771.319 339.303 C 770.048 340.088, 766.748 333.245, 767.644 331.681 C 768.016 331.032, 767.962 330.824, 767.523 331.220 C 766.573 332.078, 758.914 321.460, 759.260 319.765 C 759.392 319.119, 758.946 318.570, 758.269 318.545 C 756.631 318.485, 753.878 314.476, 754.785 313.471 C 755.178 313.036, 754.969 312.984, 754.319 313.356 C 753.143 314.030, 751.544 312.402, 751.515 310.500 C 751.507 309.950, 751.050 309.484, 750.500 309.465 C 748.268 309.385, 744.978 306.841, 745.632 305.700 C 746.011 305.040, 745.964 304.822, 745.529 305.215 C 744.358 306.272, 740.830 304.084, 741.627 302.795 C 742.002 302.188, 741.890 301.950, 741.377 302.267 C 740.110 303.050, 729.860 296.493, 730.773 295.483 C 731.173 295.041, 730.967 294.985, 730.315 295.358 C 728.884 296.179, 719.888 291.990, 720.601 290.836 C 720.878 290.389, 720.332 290.319, 719.388 290.681 C 718.292 291.102, 717.912 290.951, 718.337 290.263 C 718.753 289.591, 718.306 289.369, 717.150 289.671 C 716.132 289.937, 714.665 289.522, 713.890 288.747 C 713.116 287.973, 711.861 287.546, 711.102 287.799 C 710.184 288.105, 709.987 287.829, 710.515 286.975 C 711.017 286.163, 710.911 285.937, 710.225 286.361 C 708.647 287.336, 699.738 284.788, 701.269 283.799 C 701.946 283.361, 700.968 283.297, 699.095 283.657 C 696.801 284.098, 695.903 283.965, 696.346 283.249 C 696.766 282.569, 696.226 282.390, 694.845 282.751 C 693.523 283.097, 692.930 282.923, 693.313 282.302 C 693.701 281.674, 692.943 281.479, 691.321 281.789 C 689.719 282.096, 688.943 281.902, 689.321 281.289 C 689.695 280.684, 688.965 280.475, 687.470 280.761 C 685.976 281.047, 685 280.768, 685 280.058 C 685 279.411, 684.549 279.161, 683.997 279.502 C 682.731 280.284, 673.878 279.006, 674.426 278.120 C 674.649 277.759, 673.010 277.637, 670.784 277.849 C 668.558 278.061, 666.983 277.836, 667.284 277.349 C 667.585 276.862, 665.957 276.583, 663.666 276.729 C 660.305 276.943, 659.887 276.799, 661.500 275.982 C 663.158 275.142, 662.997 275.069, 660.558 275.552 C 656.186 276.418, 642.892 274.983, 643.667 273.729 C 644.044 273.119, 643.822 272.992, 643.128 273.421 C 642.479 273.822, 636.297 273.829, 629.391 273.435 C 622.486 273.042, 617.279 272.445, 617.821 272.110 C 618.363 271.774, 580.263 271.374, 533.153 271.220 C 486.044 271.066, 443.675 270.742, 439 270.499 C 433.179 270.197, 431.288 270.345, 433 270.970 M 450.500 293.959 C 442.250 294.257, 436.850 294.778, 438.500 295.118 C 440.150 295.457, 438.252 295.533, 434.283 295.285 C 425.556 294.741, 399.414 296.020, 400.870 296.919 C 401.440 297.272, 398.665 297.408, 394.703 297.222 C 389.633 296.984, 387.938 297.182, 388.981 297.893 C 390.014 298.598, 388.683 298.720, 384.575 298.296 C 380.542 297.879, 378.896 298.022, 379.345 298.749 C 379.786 299.463, 378.643 299.628, 375.847 299.253 C 373.132 298.888, 371.914 299.051, 372.329 299.723 C 372.743 300.393, 371.318 300.593, 368.232 300.299 C 364.694 299.962, 363.879 300.118, 365 300.917 C 366.109 301.708, 365.197 301.836, 361.500 301.411 C 357.842 300.990, 356.903 301.118, 358 301.889 C 359.108 302.668, 358.480 302.779, 355.595 302.316 C 352.521 301.822, 351.862 301.967, 352.499 302.998 C 353.052 303.893, 352.920 304.069, 352.084 303.552 C 350.577 302.621, 341.779 303.834, 342.428 304.883 C 342.684 305.298, 341.504 305.434, 339.805 305.185 C 337.918 304.908, 336.954 305.117, 337.328 305.721 C 337.698 306.320, 336.906 306.514, 335.321 306.211 C 333.641 305.889, 332.936 306.087, 333.353 306.762 C 333.765 307.429, 333.213 307.607, 331.845 307.249 C 330.523 306.903, 329.930 307.077, 330.313 307.698 C 330.701 308.326, 329.943 308.521, 328.321 308.211 C 326.641 307.889, 325.936 308.087, 326.353 308.762 C 326.765 309.429, 326.213 309.607, 324.845 309.249 C 323.462 308.888, 322.924 309.067, 323.345 309.749 C 323.766 310.431, 323.228 310.611, 321.845 310.249 C 320.238 309.829, 319.894 310.020, 320.498 310.997 C 321.038 311.870, 320.919 312.068, 320.146 311.590 C 318.627 310.651, 314.803 311.872, 315.537 313.061 C 315.850 313.566, 315.334 313.682, 314.388 313.319 C 313.292 312.898, 312.912 313.049, 313.337 313.737 C 313.768 314.434, 313.241 314.614, 311.845 314.249 C 310.238 313.829, 309.894 314.020, 310.498 314.997 C 311.035 315.865, 310.919 316.068, 310.156 315.597 C 308.796 314.756, 304.684 317.351, 305.726 318.393 C 306.118 318.785, 305.711 318.826, 304.821 318.485 C 303.931 318.143, 302.862 318.414, 302.447 319.086 C 301.922 319.935, 302.121 320.060, 303.095 319.494 C 303.914 319.019, 304.157 319.054, 303.679 319.577 C 303.228 320.071, 302.103 320.480, 301.179 320.487 C 300.256 320.494, 299.624 321.096, 299.775 321.824 C 299.926 322.553, 299.589 322.864, 299.026 322.516 C 297.679 321.683, 286.851 331.950, 287.674 333.281 C 288.029 333.856, 287.822 334.008, 287.205 333.627 C 285.936 332.843, 283.705 336.371, 284.785 337.452 C 285.178 337.845, 284.825 338.017, 284 337.833 C 283.080 337.629, 282.553 338.173, 282.637 339.239 C 282.712 340.196, 282.458 340.783, 282.071 340.544 C 280.962 339.859, 277.803 345.872, 278.597 347.157 C 279.009 347.824, 278.872 348.039, 278.271 347.667 C 276.941 346.846, 274.562 352.482, 275.558 354.094 C 276.025 354.850, 275.891 355.050, 275.202 354.625 C 273.194 353.384, 268.385 373.080, 269.400 378.383 C 269.852 380.744, 269.740 381.136, 268.937 380 C 268.159 378.899, 267.972 380.291, 268.235 385.229 C 268.431 388.930, 268.241 391.405, 267.811 390.729 C 266.670 388.932, 266.843 422.959, 268.029 433.500 C 269.383 445.542, 270.074 449.073, 270.965 448.522 C 271.375 448.268, 271.486 449.239, 271.211 450.679 C 270.889 452.359, 271.087 453.064, 271.762 452.647 C 272.429 452.235, 272.607 452.787, 272.249 454.155 C 271.829 455.762, 272.020 456.106, 272.997 455.502 C 273.874 454.960, 274.068 455.080, 273.583 455.865 C 272.557 457.525, 274.911 464.173, 276.235 463.355 C 276.845 462.978, 277.021 463.157, 276.642 463.771 C 275.844 465.061, 277.971 470.136, 279.033 469.479 C 279.441 469.228, 279.712 469.804, 279.637 470.761 C 279.562 471.717, 280.010 472.405, 280.632 472.289 C 281.255 472.173, 281.705 472.837, 281.632 473.765 C 281.560 474.693, 282.175 475.473, 283 475.498 C 283.825 475.524, 284.390 476.227, 284.255 477.061 C 283.944 478.984, 294.209 489.212, 296.041 488.804 C 296.794 488.637, 297.430 489.054, 297.455 489.731 C 297.520 491.497, 301.790 494.248, 303.156 493.403 C 303.923 492.930, 304.035 493.135, 303.490 494.015 C 302.891 494.985, 303.132 495.164, 304.388 494.681 C 305.349 494.313, 305.851 494.432, 305.529 494.954 C 304.746 496.220, 311.596 499.368, 313.104 498.436 C 313.840 497.981, 314.049 498.112, 313.640 498.773 C 312.830 500.084, 316.510 501.421, 318.146 500.410 C 318.859 499.969, 319.040 500.126, 318.614 500.816 C 317.772 502.178, 322.335 503.529, 324.098 502.440 C 324.914 501.935, 325.049 502.112, 324.512 502.980 C 323.909 503.956, 324.466 504.159, 326.805 503.815 C 328.504 503.566, 329.692 503.690, 329.444 504.090 C 329.197 504.491, 332.258 505.422, 336.247 506.159 C 351.387 508.958, 402.504 507.242, 400.501 504.002 C 400.224 503.554, 400.968 503.440, 402.155 503.751 C 403.342 504.061, 404.062 503.907, 403.755 503.408 C 403.448 502.908, 404.478 502.453, 406.044 502.396 C 409.702 502.263, 423.284 494.268, 422.368 492.787 C 421.996 492.184, 422.137 491.967, 422.683 492.304 C 424.085 493.170, 428.173 490.089, 427.362 488.777 C 426.993 488.180, 427.137 487.967, 427.683 488.304 C 428.821 489.007, 436.310 481.729, 435.520 480.687 C 435.234 480.309, 435.292 480.217, 435.648 480.481 C 436.472 481.093, 450.500 467.917, 450.500 466.532 C 450.500 465.964, 450.950 465.484, 451.500 465.465 C 453.640 465.389, 457.021 462.843, 456.373 461.795 C 455.998 461.188, 456.126 460.960, 456.658 461.289 C 457.969 462.099, 463.212 458.565, 462.258 457.514 C 461.841 457.055, 461.977 456.950, 462.560 457.281 C 463.928 458.058, 475.094 452.452, 474.186 451.443 C 473.809 451.023, 474.067 451.006, 474.759 451.404 C 476.278 452.279, 480.229 451.179, 479.545 450.072 C 479.278 449.642, 480.239 449.514, 481.679 449.789 C 483.649 450.166, 484.098 449.968, 483.494 448.990 C 482.972 448.146, 483.085 447.934, 483.817 448.387 C 484.436 448.769, 488.668 448.618, 493.221 448.051 C 503.510 446.770, 530.234 446.210, 528.660 447.309 C 528.016 447.759, 529.361 447.972, 531.687 447.789 C 533.990 447.607, 535.672 447.662, 535.424 447.909 C 534.910 448.423, 550.632 453.248, 553.177 453.357 C 554.099 453.396, 554.587 453.859, 554.263 454.384 C 553.923 454.934, 554.401 455.060, 555.388 454.681 C 556.544 454.238, 556.870 454.401, 556.388 455.181 C 555.893 455.982, 556.254 456.117, 557.555 455.617 C 558.591 455.220, 559.117 455.216, 558.723 455.610 C 557.776 456.558, 563.841 460.216, 565.085 459.448 C 565.615 459.120, 565.926 459.447, 565.775 460.176 C 565.623 460.908, 566.277 461.439, 567.239 461.363 C 568.196 461.288, 568.763 461.574, 568.500 462 C 567.749 463.216, 570.777 465.256, 572.111 464.432 C 572.844 463.978, 573.047 464.114, 572.635 464.782 C 571.991 465.824, 579.273 472.500, 581.053 472.500 C 581.519 472.500, 582.485 473.153, 583.200 473.952 C 584.333 475.217, 584.243 475.222, 582.500 473.995 C 581.400 473.221, 582.051 474.255, 583.946 476.294 C 587.520 480.137, 589.270 481.308, 586.872 478.250 C 585.630 476.666, 585.665 476.630, 587.239 477.863 C 588.195 478.613, 588.779 479.549, 588.535 479.943 C 587.726 481.253, 598.719 491.292, 600.057 490.465 C 600.854 489.972, 601.057 490.098, 600.617 490.810 C 599.698 492.298, 610.454 499.455, 612.090 498.444 C 612.924 497.929, 613.051 498.109, 612.490 499.015 C 611.877 500.008, 612.144 500.159, 613.555 499.617 C 614.591 499.220, 615.108 499.226, 614.703 499.630 C 613.691 500.643, 618.972 502.750, 628.500 505.136 C 638.844 507.725, 669.285 508.817, 682.500 507.073 C 694.439 505.496, 705.140 503.035, 704.507 502.011 C 704.227 501.558, 704.968 501.440, 706.155 501.751 C 707.623 502.135, 708.086 501.949, 707.604 501.169 C 707.152 500.437, 707.433 500.229, 708.383 500.594 C 710.172 501.280, 723.260 495.229, 722.532 494.052 C 722.251 493.597, 722.804 493.288, 723.761 493.363 C 724.717 493.438, 725.405 492.990, 725.289 492.368 C 725.173 491.745, 725.837 491.295, 726.765 491.368 C 727.693 491.440, 728.473 490.825, 728.498 490 C 728.524 489.175, 729.234 488.612, 730.077 488.749 C 731.540 488.987, 737.583 483.597, 738.204 481.500 C 738.367 480.950, 738.795 480.598, 739.155 480.718 C 741.305 481.435, 753.470 459.904, 752.661 456.813 C 752.373 455.710, 752.599 455.252, 753.238 455.647 C 753.913 456.064, 754.111 455.359, 753.789 453.679 C 753.514 452.239, 753.601 451.253, 753.982 451.489 C 754.889 452.049, 756.580 444.595, 758.047 433.570 C 758.824 427.735, 759.033 416.557, 758.664 400.620 C 758.100 376.212, 757.490 369.579, 755.899 370.562 C 755.417 370.860, 755.289 370.411, 755.614 369.564 C 756.545 367.136, 753.951 357.497, 752.809 359.144 C 752.144 360.104, 752.044 359.873, 752.468 358.355 C 753.165 355.865, 750.213 347.750, 748.905 348.558 C 748.420 348.858, 748.319 348.332, 748.681 347.388 C 749.125 346.231, 748.962 345.905, 748.181 346.388 C 747.401 346.870, 747.238 346.544, 747.681 345.388 C 748.096 344.308, 747.948 343.914, 747.283 344.325 C 746.682 344.697, 746.285 344.228, 746.363 343.239 C 746.438 342.283, 745.990 341.595, 745.368 341.711 C 744.745 341.827, 744.295 341.152, 744.368 340.211 C 744.440 339.270, 743.904 338.624, 743.176 338.775 C 742.447 338.926, 742.149 338.569, 742.512 337.981 C 743.378 336.580, 741.076 333.835, 739.732 334.666 C 739.120 335.044, 738.991 334.823, 739.420 334.129 C 740.392 332.556, 733.444 325.608, 731.871 326.580 C 731.162 327.018, 730.956 326.880, 731.355 326.235 C 732.206 324.858, 727.134 320.816, 725.632 321.674 C 725.010 322.030, 724.835 321.951, 725.244 321.500 C 726.274 320.363, 722.265 317.718, 720.844 318.597 C 720.077 319.070, 719.965 318.865, 720.510 317.985 C 721.109 317.015, 720.868 316.836, 719.612 317.319 C 718.668 317.681, 718.130 317.598, 718.417 317.135 C 719.118 316, 714.133 313.799, 712.771 314.642 C 712.164 315.017, 711.977 314.846, 712.344 314.252 C 713.114 313.006, 707.264 310.719, 705.731 311.666 C 705.083 312.067, 704.997 311.814, 705.502 310.997 C 706.106 310.020, 705.762 309.829, 704.155 310.249 C 702.772 310.611, 702.234 310.431, 702.655 309.749 C 703.076 309.067, 702.538 308.888, 701.155 309.249 C 699.772 309.611, 699.234 309.431, 699.655 308.749 C 700.076 308.067, 699.538 307.888, 698.155 308.249 C 696.786 308.607, 696.235 308.429, 696.648 307.761 C 697.079 307.063, 696.322 306.936, 694.399 307.385 C 692.416 307.847, 691.952 307.760, 692.931 307.110 C 694.013 306.390, 693.482 305.993, 690.746 305.480 C 688.757 305.107, 686.581 305.141, 685.910 305.555 C 685.169 306.014, 684.949 305.892, 685.348 305.245 C 686.178 303.902, 673.040 301.569, 669.797 302.483 C 667.941 303.007, 667.788 302.914, 669 302.001 C 670.185 301.108, 669.727 300.946, 666.820 301.226 C 664.796 301.422, 663.329 301.276, 663.560 300.902 C 664.182 299.897, 644.754 297.579, 635.350 297.537 C 630.868 297.517, 627.663 297.213, 628.228 296.862 C 629.830 295.868, 597.750 294.493, 574.500 294.561 C 562.950 294.594, 555.750 294.327, 558.500 293.968 C 564.455 293.189, 472.058 293.182, 450.500 293.959 M 467.750 294.723 C 469.538 294.945, 472.462 294.945, 474.250 294.723 C 476.038 294.502, 474.575 294.320, 471 294.320 C 467.425 294.320, 465.962 294.502, 467.750 294.723 M 234.485 355.975 C 235.107 356.982, 226.974 359.084, 225.560 358.281 C 224.977 357.950, 224.835 358.049, 225.245 358.501 C 225.654 358.953, 224.432 360.381, 222.530 361.674 C 220.627 362.967, 217.817 366.157, 216.285 368.762 C 213.550 373.415, 213.495 373.824, 213.244 391.500 C 213.103 401.400, 212.878 415.422, 212.744 422.660 C 212.610 429.898, 212.873 435.298, 213.328 434.660 C 213.816 433.977, 213.978 434.619, 213.723 436.220 C 213.484 437.716, 213.578 438.761, 213.932 438.542 C 214.286 438.323, 215.112 439.349, 215.768 440.822 C 216.423 442.295, 218.206 444.841, 219.730 446.480 C 221.253 448.119, 222.376 449.840, 222.225 450.305 C 222.074 450.769, 222.365 450.893, 222.871 450.580 C 223.985 449.891, 229.214 452.452, 228.386 453.281 C 228.065 453.602, 228.817 453.599, 230.057 453.275 C 231.516 452.893, 232.080 453.061, 231.655 453.749 C 231.234 454.431, 231.772 454.611, 233.155 454.249 C 234.538 453.888, 235.076 454.067, 234.655 454.749 C 234.239 455.422, 234.744 455.618, 236.027 455.283 C 237.519 454.892, 237.889 454.226, 237.425 452.765 C 235.343 446.204, 233.868 433.129, 233.335 416.500 C 232.659 395.432, 233.685 372.197, 235.146 375.500 C 235.830 377.047, 235.904 376.853, 235.470 374.645 C 234.795 371.211, 235.919 362.832, 236.968 363.480 C 237.376 363.733, 237.486 362.761, 237.211 361.321 C 236.889 359.641, 237.087 358.936, 237.762 359.353 C 238.409 359.753, 238.622 359.269, 238.314 358.094 C 238.040 357.044, 236.956 355.960, 235.906 355.686 C 234.856 355.411, 234.217 355.541, 234.485 355.975 M 788.011 356.683 C 788.017 357.132, 788.644 359.549, 789.404 362.054 C 793.751 376.375, 794.185 426.259, 790.126 444.953 C 788.997 450.152, 788.211 454.545, 788.380 454.714 C 788.550 454.883, 790.651 454.329, 793.049 453.483 C 795.448 452.636, 798.017 452.176, 798.757 452.460 C 799.593 452.781, 799.832 452.537, 799.388 451.819 C 798.911 451.047, 799.223 450.872, 800.324 451.294 C 801.343 451.685, 801.885 451.463, 801.738 450.714 C 801.607 450.046, 802.283 449.562, 803.239 449.637 C 804.196 449.712, 804.763 449.426, 804.500 449 C 804.237 448.575, 804.764 447.613, 805.670 446.863 C 806.577 446.113, 808.367 443.250, 809.649 440.500 C 811.929 435.611, 811.980 434.837, 811.968 405.500 C 811.957 378.589, 811.768 375.088, 810.129 371.500 C 808.309 367.516, 800.021 359, 797.963 359 C 797.369 359, 797.091 358.663, 797.345 358.250 C 797.600 357.837, 796.614 357.484, 795.155 357.465 C 793.695 357.446, 791.487 357.079, 790.250 356.648 C 789.013 356.217, 788.005 356.233, 788.011 356.683 M 257.667 496.667 C 256.404 497.929, 256.909 655.779, 258.207 665.500 C 258.867 670.450, 259.429 675.920, 259.454 677.655 C 259.479 679.389, 259.789 680.630, 260.143 680.411 C 261.093 679.824, 262.176 684.907, 261.376 686.200 C 260.932 686.918, 261.153 687.023, 262.003 686.498 C 262.980 685.894, 263.171 686.238, 262.751 687.845 C 262.440 689.032, 262.595 689.751, 263.093 689.442 C 263.934 688.923, 264.396 690.658, 264.258 693.817 C 264.226 694.541, 264.450 694.883, 264.756 694.577 C 265.478 693.855, 275.003 709.848, 274.717 711.303 C 274.598 711.911, 275.099 712.430, 275.831 712.455 C 277.587 712.515, 280.106 716.020, 279.313 717.302 C 278.971 717.856, 279.137 718.033, 279.683 717.696 C 280.732 717.047, 287.889 723.796, 287.959 725.500 C 287.981 726.050, 288.411 726.500, 288.914 726.500 C 290.700 726.500, 298.914 733.331, 298.307 734.312 C 297.954 734.884, 298.198 734.996, 298.881 734.573 C 299.548 734.161, 302.146 735.160, 304.786 736.843 C 307.379 738.496, 311.410 740.605, 313.744 741.530 C 316.171 742.492, 317.710 743.661, 317.339 744.260 C 316.964 744.867, 317.171 745.012, 317.829 744.606 C 318.455 744.219, 322.462 745.005, 326.733 746.352 C 341.807 751.105, 343.052 751.133, 518.500 750.770 C 673.368 750.450, 683.961 750.318, 691 748.625 C 701.887 746.008, 712.630 741.631, 722.019 735.988 C 726.548 733.266, 730.658 731.289, 731.152 731.594 C 731.646 731.899, 731.926 731.736, 731.775 731.231 C 731.372 729.887, 746.582 715.929, 747.523 716.779 C 747.962 717.176, 747.985 716.918, 747.574 716.206 C 746.660 714.621, 748.826 711.774, 750.268 712.666 C 750.859 713.031, 751.011 712.827, 750.620 712.194 C 750.241 711.580, 751.184 709.340, 752.715 707.214 C 754.247 705.089, 756.811 700.591, 758.414 697.217 C 760.016 693.844, 761.591 691.247, 761.914 691.447 C 762.236 691.646, 762.537 690.839, 762.583 689.655 C 762.628 688.470, 763.745 683.900, 765.065 679.500 L 767.465 671.500 767.764 584.601 C 768.018 510.995, 767.853 497.877, 766.690 498.843 C 765.934 499.470, 764.996 499.663, 764.605 499.272 C 764.214 498.881, 764.164 499.264, 764.493 500.122 C 765.228 502.037, 752.442 514.391, 750.785 513.367 C 750.147 512.973, 749.975 513.151, 750.373 513.795 C 750.749 514.403, 750.172 515.373, 749.092 515.951 C 747.171 516.979, 747.120 518.649, 746.794 590.751 C 746.465 663.452, 746.428 664.628, 744.199 673.527 C 741.753 683.293, 736.083 695.646, 734.224 695.262 C 733.585 695.130, 733.323 695.678, 733.635 696.492 C 734.401 698.488, 718.363 714.353, 716.357 713.583 C 715.554 713.275, 715.146 713.428, 715.452 713.923 C 716.230 715.181, 706.087 721.247, 704.332 720.574 C 703.542 720.271, 703.142 720.420, 703.442 720.905 C 704.151 722.054, 698.688 724.188, 687.500 727.132 L 678.500 729.500 514.500 729.500 C 387.873 729.500, 349.007 729.216, 343.951 728.256 C 333.543 726.278, 326.856 724.043, 327.625 722.798 C 328.040 722.126, 327.852 721.974, 327.146 722.410 C 325.627 723.349, 321.803 722.128, 322.537 720.939 C 322.850 720.434, 322.334 720.318, 321.388 720.681 C 320.231 721.125, 319.905 720.962, 320.388 720.181 C 320.870 719.401, 320.544 719.238, 319.388 719.681 C 318.132 720.164, 317.891 719.985, 318.490 719.015 C 319.014 718.168, 318.921 717.931, 318.231 718.357 C 316.869 719.199, 309.811 715.114, 310.553 713.914 C 310.856 713.424, 310.444 713.276, 309.636 713.586 C 307.816 714.285, 294.543 701.548, 295.492 700.013 C 295.853 699.429, 295.553 699.074, 294.824 699.225 C 294.096 699.376, 293.560 698.730, 293.632 697.789 C 293.705 696.848, 293.255 696.173, 292.632 696.289 C 292.010 696.405, 291.562 695.717, 291.637 694.761 C 291.712 693.804, 291.448 693.223, 291.048 693.470 C 289.906 694.176, 285.755 686.081, 286.399 684.403 C 286.770 683.436, 286.567 683.150, 285.831 683.604 C 285.051 684.086, 284.865 683.623, 285.249 682.155 C 285.560 680.968, 285.427 680.236, 284.954 680.528 C 283.653 681.332, 281.086 671.606, 279.933 661.501 C 279.297 655.931, 279.018 626.704, 279.202 584.833 C 279.390 542.249, 279.146 517.228, 278.545 517.333 C 278.020 517.425, 277.550 516.825, 277.500 516 C 277.450 515.175, 276.820 514.628, 276.099 514.785 C 274.425 515.150, 271.852 513.049, 272.563 511.898 C 272.860 511.417, 272.496 511.256, 271.754 511.541 C 271.011 511.826, 269.335 510.921, 268.028 509.529 C 266.721 508.138, 266.010 507, 266.448 507 C 266.886 507, 266.689 506.330, 266.009 505.511 C 265.329 504.692, 264.425 504.237, 264 504.500 C 262.784 505.252, 260.744 502.223, 261.568 500.889 C 262.008 500.178, 261.886 499.952, 261.268 500.334 C 259.937 501.157, 257.618 498.427, 258.473 497.044 C 259.194 495.876, 258.692 495.641, 257.667 496.667 M 366.586 554.043 C 364.983 554.523, 363.183 554.637, 362.586 554.297 C 361.989 553.957, 361.800 554.014, 362.167 554.423 C 362.904 555.245, 358.924 559.641, 357.786 559.262 C 357.393 559.131, 357.357 559.767, 357.706 560.676 C 358.090 561.677, 357.936 562.078, 357.314 561.694 C 356.672 561.297, 356.476 562.038, 356.789 563.679 C 357.166 565.649, 356.968 566.098, 355.990 565.494 C 355.176 564.990, 354.935 565.086, 355.345 565.750 C 355.705 566.332, 356.023 596.664, 356.051 633.154 C 356.094 687.230, 356.361 700.228, 357.497 703.434 C 358.264 705.598, 358.657 707.746, 358.371 708.209 C 358.085 708.671, 358.222 708.938, 358.676 708.802 C 359.129 708.666, 360.829 709.443, 362.454 710.528 C 365.218 712.373, 367.495 712.519, 397.819 712.790 C 426.012 713.042, 430.544 712.874, 432.643 711.498 C 433.970 710.628, 435.443 710.156, 435.915 710.448 C 436.388 710.740, 436.712 710.196, 436.637 709.239 C 436.562 708.283, 437.046 707.607, 437.714 707.738 C 438.463 707.885, 438.685 707.343, 438.294 706.324 C 437.945 705.415, 438.074 704.928, 438.580 705.241 C 439.138 705.586, 439.304 677.389, 439 633.485 L 438.500 561.160 436 558.451 C 431.191 553.241, 429.449 552.993, 398.282 553.086 C 382.452 553.133, 368.189 553.564, 366.586 554.043 M 467 554.338 C 465.075 555.028, 463.163 555.684, 462.750 555.796 C 462.337 555.908, 461.980 556.217, 461.957 556.482 C 461.933 556.747, 461.247 558.559, 460.432 560.508 C 459.169 563.532, 458.962 574.603, 459.026 636.009 C 459.067 675.586, 459.425 707.861, 459.820 707.733 C 460.215 707.605, 461.621 708.507, 462.945 709.738 C 466.368 712.921, 468.778 713.155, 494.686 712.809 L 517.873 712.500 520.756 709.736 C 522.341 708.216, 523.939 707.272, 524.306 707.639 C 524.673 708.006, 524.867 675.275, 524.737 634.903 C 524.513 565.506, 524.400 561.352, 522.661 558.789 C 521.649 557.298, 519.955 555.803, 518.896 555.467 C 517.837 555.131, 517.188 554.504, 517.454 554.074 C 518.311 552.688, 470.914 552.936, 467 554.338 M 545.285 554.448 C 540.916 556.386, 540.319 559.526, 542.877 567.102 C 544.021 570.489, 544.672 573.722, 544.324 574.285 C 543.976 574.848, 544.158 575.020, 544.729 574.667 C 546.059 573.846, 548.438 579.482, 547.442 581.094 C 546.981 581.840, 547.109 582.050, 547.773 581.640 C 549.084 580.830, 550.421 584.510, 549.410 586.146 C 548.988 586.828, 549.125 587.041, 549.741 586.660 C 551.026 585.866, 556.340 598.673, 555.564 600.694 C 555.266 601.469, 555.419 601.859, 555.902 601.560 C 557.119 600.809, 563.360 616.609, 562.437 618.102 C 562.005 618.801, 562.111 619.049, 562.689 618.692 C 563.982 617.893, 578.399 653.545, 577.423 655.125 C 577.001 655.808, 577.118 656.045, 577.700 655.686 C 578.993 654.887, 584.403 668.539, 583.422 670.125 C 582.980 670.841, 583.119 671.044, 583.773 670.640 C 585.084 669.830, 586.421 673.510, 585.410 675.146 C 584.989 675.826, 585.125 676.041, 585.736 675.663 C 587.080 674.833, 593.450 690.462, 592.437 692.102 C 591.987 692.831, 592.112 693.049, 592.752 692.653 C 594.003 691.880, 600.398 706.547, 599.467 708.054 C 599.128 708.601, 599.427 708.926, 600.130 708.775 C 600.834 708.624, 601.430 709.138, 601.455 709.917 C 601.518 711.906, 604.078 712.209, 624.718 712.674 C 639.844 713.015, 643.447 712.820, 645.953 711.524 C 649.685 709.595, 650.691 706.033, 649.141 700.238 C 648.497 697.829, 648.271 695.370, 648.639 694.775 C 649.008 694.179, 648.856 693.971, 648.302 694.314 C 647.053 695.085, 628.688 648.313, 629.637 646.778 C 630.007 646.180, 629.867 645.964, 629.328 646.298 C 628.011 647.111, 618.544 623.547, 619.540 621.936 C 620.013 621.169, 619.899 620.944, 619.243 621.350 C 617.900 622.180, 612.556 608.527, 613.578 606.874 C 614.020 606.159, 613.881 605.956, 613.227 606.360 C 611.916 607.170, 610.579 603.490, 611.590 601.854 C 612 601.190, 611.876 600.959, 611.300 601.314 C 610.007 602.113, 604.597 588.461, 605.578 586.875 C 606.020 586.159, 605.881 585.956, 605.227 586.360 C 603.916 587.170, 602.579 583.490, 603.590 581.854 C 604.006 581.182, 603.876 580.959, 603.281 581.326 C 601.997 582.120, 597.614 570.434, 598.599 568.840 C 599.070 568.077, 598.864 567.966, 597.985 568.510 C 597.015 569.109, 596.836 568.868, 597.319 567.612 C 597.681 566.668, 597.596 566.132, 597.129 566.420 C 596.101 567.056, 592.826 559.090, 593.601 557.837 C 593.902 557.350, 593.573 557.074, 592.870 557.225 C 592.166 557.376, 591.570 556.862, 591.545 556.083 C 591.484 554.174, 589.531 553.961, 567.500 553.457 C 552.481 553.113, 547.826 553.320, 545.285 554.448 M 379 633.500 L 379 692 398 692 L 417 692 417 634.131 L 417 576.262 413.250 575.642 C 411.188 575.301, 402.637 575.017, 394.250 575.011 L 379 575 379 633.500 M 481 633.466 L 481 692 492.008 692 L 503.016 692 502.758 633.750 L 502.500 575.500 491.750 575.216 L 481 574.932 481 633.466 M 440.328 625.500 C 440.333 629.350, 440.513 630.802, 440.730 628.728 C 440.946 626.653, 440.943 623.503, 440.722 621.728 C 440.501 619.952, 440.324 621.650, 440.328 625.500 M 440.343 648.500 C 440.346 652.900, 440.522 654.576, 440.733 652.224 C 440.945 649.872, 440.942 646.272, 440.727 644.224 C 440.512 642.176, 440.339 644.100, 440.343 648.500 M 440.336 671 C 440.336 675.125, 440.513 676.813, 440.728 674.750 C 440.944 672.688, 440.944 669.313, 440.728 667.250 C 440.513 665.188, 440.336 666.875, 440.336 671 M 440.320 695 C 440.320 698.575, 440.502 700.038, 440.723 698.250 C 440.945 696.462, 440.945 693.538, 440.723 691.750 C 440.502 689.962, 440.320 691.425, 440.320 695 M 401.325 728.750 C 424.328 728.900, 461.678 728.899, 484.325 728.750 C 506.971 728.600, 488.150 728.477, 442.500 728.477 C 396.850 728.477, 378.321 728.600, 401.325 728.750 M 532.750 728.737 C 535.638 728.939, 540.362 728.939, 543.250 728.737 C 546.138 728.535, 543.775 728.370, 538 728.370 C 532.225 728.370, 529.862 728.535, 532.750 728.737 M 552.750 728.732 C 555.087 728.943, 558.913 728.943, 561.250 728.732 C 563.587 728.522, 561.675 728.349, 557 728.349 C 552.325 728.349, 550.413 728.522, 552.750 728.732 M 369.199 752.744 C 373.984 752.927, 382.084 752.928, 387.199 752.746 C 392.315 752.564, 388.400 752.414, 378.500 752.413 C 368.600 752.412, 364.415 752.561, 369.199 752.744 M 406.803 752.746 C 412.470 752.925, 421.470 752.924, 426.803 752.745 C 432.136 752.565, 427.500 752.419, 416.500 752.420 C 405.500 752.421, 401.136 752.568, 406.803 752.746 M 491.173 752.750 C 521.243 752.897, 570.743 752.897, 601.173 752.750 C 631.603 752.603, 607 752.483, 546.500 752.483 C 486 752.483, 461.103 752.603, 491.173 752.750" stroke="none" fill="#4693f9" fill-rule="evenodd"/></svg>